<svg version="1.0" xmlns="http://www.w3.org/2000/svg" width="933.333" height="933.333" viewBox="0 0 700 700"><path d="M0 350v350h700V0H0v350zm388.5-247c44.8 5.2 78.6 22.8 100.8 52.5 6.3 8.5 14.1 23.8 17.6 34.5 9.5 29.7 8.5 67.8-2.4 91.7-6.9 15.1-18.7 29-32.3 38.2-8.1 5.5-24.6 13.4-32.8 15.8-5.8 1.6-6.4 2-6.4 4.4 0 2.5.3 2.7 6.4 3.3 19.2 2 42.4 14.4 59 31.6 24.6 25.5 35.8 57.1 34.3 96.5-.9 22.9-5 39.3-14.3 57.5-19.4 38-57.1 60.4-114.9 68.1-6.3.8-40.1 1.3-112.7 1.6l-103.8.4V102h96.3c59.3 0 99.7.4 105.2 1z"/><path d="M248 237.6v82.5l65.3-.3 65.2-.4 9.7-2.6c35.7-9.7 59.9-33.7 66.3-65.7 2.4-11.5 1.6-30.7-1.5-40.6-8.3-26.4-27.2-44.1-54.4-51-15.9-4-25.3-4.5-89.6-4.5h-61v82.6zm0 221.4v86h68.9c74.9 0 82.9-.4 100.7-5.5 18.3-5.3 30.7-12.9 40.8-25.1 19.8-24 22.9-56.6 8.2-86.9-13.9-28.4-40-47.2-74-53-7.3-1.2-20.5-1.5-76.7-1.5H248v86z"/></svg>