<svg width="22" height="23" fill="none" xmlns="http://www.w3.org/2000/svg"><g clip-path="url(#clip0_173_44)"><path d="M22 11.787C22 5.68 17.07.719 11 .719S0 5.679 0 11.787c0 5.528 4.028 10.103 9.285 10.932v-7.742h-2.81v-3.202h2.81v-2.44c0-2.77 1.636-4.314 4.14-4.314 1.208 0 2.449.239 2.449.239v2.7h-1.377c-1.365 0-1.805.863-1.805 1.737v2.077h3.058l-.485 3.202h-2.561v7.742C17.972 21.89 22 17.315 22 11.787z" fill="#fff"/></g><defs><clipPath id="clip0_173_44"><path fill="#fff" transform="translate(0 .719)" d="M0 0h22v22H0z"/></clipPath></defs></svg>