<svg width="23" height="23" fill="none" xmlns="http://www.w3.org/2000/svg"><g clip-path="url(#clip0_173_47)"><path fill-rule="evenodd" clip-rule="evenodd" d="M11.75 2.846c2.892 0 3.231.013 4.374.064 1.057.048 1.629.224 2.011.374.507.198.868.43 1.246.808.378.378.615.739.808 1.246.146.382.327.954.374 2.01.052 1.144.064 1.483.064 4.375s-.012 3.231-.064 4.374c-.047 1.057-.223 1.629-.374 2.011-.197.507-.43.868-.808 1.246a3.307 3.307 0 01-1.246.808c-.382.146-.954.327-2.01.374-1.144.052-1.483.064-4.375.064s-3.231-.012-4.374-.064c-1.057-.047-1.629-.224-2.011-.374a3.36 3.36 0 01-1.246-.808 3.307 3.307 0 01-.808-1.246c-.146-.382-.327-.954-.374-2.01-.051-1.144-.064-1.483-.064-4.375s.013-3.231.064-4.374c.047-1.057.224-1.629.374-2.011a3.36 3.36 0 01.808-1.246 3.304 3.304 0 011.246-.808c.382-.146.954-.326 2.01-.374 1.144-.056 1.483-.064 4.375-.064zm0-1.951c-2.939 0-3.309.013-4.464.064-1.152.052-1.938.237-2.626.503a5.276 5.276 0 00-1.916 1.25 5.37 5.37 0 00-1.25 1.917c-.267.688-.452 1.474-.503 2.63-.052 1.151-.065 1.52-.065 4.46 0 2.939.013 3.308.065 4.464.051 1.152.236 1.938.502 2.63a5.275 5.275 0 001.25 1.916 5.37 5.37 0 001.917 1.25c.688.267 1.474.452 2.63.504 1.156.051 1.521.064 4.464.064 2.944 0 3.309-.013 4.465-.064 1.151-.052 1.938-.237 2.63-.503a5.278 5.278 0 001.916-1.25 5.358 5.358 0 001.25-1.917c.267-.688.452-1.474.503-2.63.052-1.156.065-1.52.065-4.464 0-2.944-.013-3.309-.065-4.465-.051-1.151-.236-1.938-.503-2.63a5.27 5.27 0 00-1.25-1.916 5.373 5.373 0 00-1.916-1.25c-.688-.266-1.474-.451-2.63-.503-1.16-.047-1.53-.06-4.469-.06zm0 5.264a5.561 5.561 0 000 11.12 5.564 5.564 0 005.56-5.56 5.564 5.564 0 00-5.56-5.56zm0 9.17a3.609 3.609 0 11-.001-7.219 3.609 3.609 0 01.001 7.218zm7.077-9.39a1.298 1.298 0 11-2.596 0 1.298 1.298 0 012.596 0z" fill="#fff"/></g><defs><clipPath id="clip0_173_47"><path fill="#fff" transform="translate(.75 .719)" d="M0 0h22v22H0z"/></clipPath></defs></svg>