<svg width="22" height="23" fill="none" xmlns="http://www.w3.org/2000/svg"><g clip-path="url(#clip0_173_58)"><path d="M4.311.719A4.324 4.324 0 000 5.029v13.38c0 2.37 1.94 4.31 4.311 4.31H17.69a4.324 4.324 0 004.311-4.31V5.028A4.324 4.324 0 0017.69.72H4.31zm1.085 3.63c1.136 0 1.836.746 1.858 1.727 0 .96-.722 1.727-1.88 1.727h-.022c-1.115 0-1.836-.767-1.836-1.727 0-.98.743-1.727 1.88-1.727zm9.796 4.585c2.186 0 3.825 1.429 3.825 4.5v5.732h-3.323v-5.348c0-1.344-.48-2.26-1.683-2.26-.918 0-1.465.617-1.705 1.214-.088.214-.11.512-.11.81v5.584H8.874s.044-9.06 0-9.998h3.323v1.416c.442-.681 1.231-1.65 2.995-1.65zm-11.48.235h3.323v9.997H3.712V9.169z" fill="#fff"/></g><defs><clipPath id="clip0_173_58"><path fill="#fff" transform="translate(0 .719)" d="M0 0h22v22H0z"/></clipPath></defs></svg>