<svg width="118" height="76" fill="none" xmlns="http://www.w3.org/2000/svg"><g id="sweet" clip-path="url(#clip0_359_2)"><g id="Group"><g id="cover" opacity=".2"><g id="Group_2"><path id="Vector" d="M53.095 65.874c9.804-.54 20.21 1.352 23.243 4.229 3.032 2.876-2.457 5.647-12.261 6.189-9.804.54-20.21-1.352-23.242-4.229-3.032-2.876 2.456-5.647 12.26-6.189z" fill="#CE3439"/></g></g><g id="cocao-cup"><g id="tubule"><g id="Group_3"><path id="Vector_2" d="M49.751 16H44.05a.163.163 0 00-.164.163v.884c0 .09.074.163.164.163h5.338c.2 0 .363.163.363.364v34.28h1.343V16.408a.408.408 0 00-.408-.408h-.935z" fill="#CE3439"/></g></g><g id="cup"><g id="Group_4"><path id="Vector_3" d="M65.5 70.475H51.672a4.859 4.859 0 014.859-4.859h4.11a4.859 4.859 0 014.859 4.859z" fill="#0A857B"/></g><g id="Group_5"><path id="Vector_4" d="M58.617 66.224A10.422 10.422 0 0148.22 56.51l-1.636-23.996h24.232L69.01 56.58a10.422 10.422 0 01-10.393 9.642z" fill="#34A593"/></g></g><g id="cream"><g id="Group_6"><path id="Vector_5" d="M68.367 32.515H48.805a4.505 4.505 0 014.505-4.505h10.552a4.505 4.505 0 014.505 4.505z" fill="#F8D59B"/></g><g id="Group_7"><path id="Vector_6" d="M64.118 28.01H53.054a4.505 4.505 0 014.505-4.504h2.054a4.505 4.505 0 014.505 4.505z" fill="#F8D59B"/></g><g id="Group_8"><path id="Vector_7" d="M60.276 23.608h-3.38c0-.811.657-1.469 1.468-1.469h.444c.81 0 1.468.658 1.468 1.469z" fill="#F8D59B"/></g><g id="Group_9"><path id="Vector_8" d="M64.118 28.003s-2.144.673-3.467-.693c-1.323-1.365-1.05-1.824-1.653-2.558-.764-.932-2.101-1.21-2.101-1.21s1.41-.145 2.78.065c1.629.25 1.587 1.61 2.8 3.05 1.03 1.22 1.64 1.346 1.64 1.346z" fill="#D8B17D"/></g><g id="Group_10"><path id="Vector_9" d="M53.054 28.01s6.203 1.148 7.692 2.12c1.92 1.252 1.882 2.385 1.882 2.385h2.688s.353-2.028-3.303-3.714c-2.304-1.063-8.959-.791-8.959-.791z" fill="#D8B17D"/></g></g><g id="cocao"><g id="Group_11"><g id="Group_12"><path id="Vector_10" d="M58.52 64.3c-4.424 0-8.092-4-8.393-9.156l-1.322-22.622h19.562l-1.458 22.689c-.329 5.127-3.986 9.09-8.389 9.09z" fill="#A56927"/></g></g><g id="Group_13"><g id="Group_14"><path id="Vector_11" d="M50.495 32.515s.19 19.53 1.177 23.227c.616 2.305 2.204 4.302 3.311 5.479.168.178.452-.03.333-.244-.83-1.487-2.017-3.992-2.262-6.503-.816-8.396-.755-21.959-.755-21.959h-1.804z" fill="#D38D46"/></g></g><g id="Group_15"><g id="Group_16"><path id="Vector_12" d="M61.932 55.84a.91.91 0 11-.256 1.802.91.91 0 01.256-1.802z" fill="#D38D46"/></g></g><g id="Group_17"><g id="Group_18"><path id="Vector_13" d="M63.549 57.993a.662.662 0 11-.187 1.31.662.662 0 01.187-1.31z" fill="#D38D46"/></g></g><g id="Group_19"><g id="Group_20"><path id="Vector_14" d="M61.935 60.023a.362.362 0 11-.103.717.362.362 0 01.103-.717z" fill="#D38D46"/></g></g></g></g></g></g><defs><clipPath id="clip0_359_2"><path fill="#fff" d="M0 0h118v76H0z"/></clipPath></defs></svg>