<svg width="21" height="19" fill="none" xmlns="http://www.w3.org/2000/svg"><g clip-path="url(#clip0_173_52)"><path d="M20.5 2.848a7.58 7.58 0 01-2.356.716c.848-.562 1.496-1.454 1.804-2.513a7.802 7.802 0 01-2.607 1.104C16.592 1.27 15.527.719 14.346.719c-2.266 0-4.103 2.035-4.103 4.544 0 .356.036.704.106 1.036-3.409-.19-6.432-2-8.456-4.75a4.89 4.89 0 00-.554 2.285c0 1.578.724 2.97 1.824 3.783a3.804 3.804 0 01-1.858-.57v.057c0 2.201 1.415 4.039 3.29 4.457-.343.103-.706.16-1.08.16a3.59 3.59 0 01-.773-.085c.522 1.807 2.037 3.121 3.832 3.157-1.404 1.219-3.173 1.943-5.095 1.943a7.89 7.89 0 01-.979-.063c1.816 1.293 3.972 2.046 6.289 2.046 7.547 0 11.673-6.927 11.673-12.934l-.014-.588A8.734 8.734 0 0020.5 2.848z" fill="#fff"/></g><defs><clipPath id="clip0_173_52"><path fill="#fff" transform="translate(.5 .719)" d="M0 0h20v18H0z"/></clipPath></defs></svg>