<svg width="23" height="16" fill="none" xmlns="http://www.w3.org/2000/svg"><g clip-path="url(#clip0_173_55)"><path d="M21.79 2.572a2.62 2.62 0 00-.703-1.19 2.78 2.78 0 00-1.226-.695C18.14.223 11.244.223 11.244.223a68.717 68.717 0 00-8.607.44 2.88 2.88 0 00-1.226.713c-.34.333-.585.745-.713 1.195A27.844 27.844 0 00.25 7.72a27.792 27.792 0 00.447 5.147c.125.449.37.858.71 1.19.34.33.764.569 1.23.695 1.743.463 8.606.463 8.606.463a68.865 68.865 0 008.617-.44 2.78 2.78 0 001.226-.695c.34-.331.58-.743.701-1.19.317-1.697.47-3.421.46-5.149a25.437 25.437 0 00-.459-5.169v.001zM9.05 10.927V4.512l5.74 3.208-5.74 3.207z" fill="#fff"/></g><defs><clipPath id="clip0_173_55"><path fill="#fff" transform="translate(.25 .219)" d="M0 0h22v15H0z"/></clipPath></defs></svg>