<svg width="121" height="36" fill="none" xmlns="http://www.w3.org/2000/svg"><g clip-path="url(#clip0_173_735)"><path d="M111.181.297H10.324c-.368 0-.731 0-1.098.002C8.92.3 8.615.306 8.305.31c-.673.007-1.345.06-2.01.157-.662.1-1.305.288-1.905.557-.6.272-1.147.626-1.623 1.048a5.62 5.62 0 00-1.18 1.44 5.415 5.415 0 00-.628 1.692 10.272 10.272 0 00-.18 1.779c-.008.272-.01.546-.014.818v20.541c.005.276.006.543.015.82.008.596.068 1.19.18 1.779.11.589.321 1.16.626 1.692a5.604 5.604 0 001.181 1.434 6.318 6.318 0 001.623 1.048c.6.27 1.243.46 1.906.56.664.097 1.336.15 2.009.158.31.006.614.01.921.01h103.042c.306 0 .619-.004.924-.01.672-.008 1.343-.06 2.006-.158a7.417 7.417 0 001.912-.56 6.295 6.295 0 001.622-1.048 5.77 5.77 0 001.185-1.434 5.388 5.388 0 00.62-1.693 10.75 10.75 0 00.187-1.779c.003-.276.003-.543.003-.819.008-.323.008-.644.008-.972V8.771c0-.325 0-.648-.008-.97 0-.272 0-.546-.003-.818a10.76 10.76 0 00-.187-1.78 5.41 5.41 0 00-.62-1.69c-.619-1.07-1.601-1.94-2.807-2.489a7.384 7.384 0 00-1.912-.557 14.713 14.713 0 00-2.006-.157c-.305-.004-.618-.01-.924-.011-.36-.002-.726-.002-1.087-.002z" fill="#B3B4B5"/><path d="M9.145 35.069c-.306 0-.605-.004-.908-.01a14.359 14.359 0 01-1.878-.145 6.456 6.456 0 01-1.663-.487 5.455 5.455 0 01-1.403-.903 4.809 4.809 0 01-1.025-1.242 4.69 4.69 0 01-.546-1.472 9.802 9.802 0 01-.167-1.667 71.607 71.607 0 01-.014-.812V7.798s.008-.614.014-.795a9.767 9.767 0 01.166-1.664c.096-.514.28-1.012.546-1.477.262-.46.606-.88 1.02-1.243a5.613 5.613 0 011.408-.909 6.393 6.393 0 011.66-.483c.623-.09 1.253-.14 1.884-.146l.906-.01h103.21l.917.01c.626.007 1.25.055 1.866.145a6.52 6.52 0 011.678.487c1.043.475 1.891 1.227 2.426 2.15.262.463.443.957.537 1.466.105.555.163 1.116.175 1.678.003.252.003.522.003.791.008.333.008.65.008.97v18.603c0 .323 0 .638-.008.956 0 .289 0 .554-.004.826a10.035 10.035 0 01-.171 1.648 4.7 4.7 0 01-.543 1.484 4.98 4.98 0 01-1.019 1.232 5.483 5.483 0 01-1.406.909 6.434 6.434 0 01-1.676.488c-.62.09-1.248.139-1.876.145-.295.006-.603.01-.901.01l-1.09.002-102.126-.002z" fill="#000"/><path d="M29.91 18.338a4.4 4.4 0 012.095-3.69 4.502 4.502 0 00-3.547-1.918c-1.492-.156-2.939.893-3.7.893-.775 0-1.945-.877-3.206-.851a4.724 4.724 0 00-3.975 2.424c-1.719 2.976-.437 7.349 1.21 9.754.823 1.178 1.786 2.494 3.046 2.447 1.232-.051 1.693-.786 3.18-.786 1.475 0 1.906.786 3.192.756 1.322-.021 2.156-1.183 2.95-2.372a9.743 9.743 0 001.35-2.748 4.25 4.25 0 01-2.594-3.91zm-2.427-7.19a4.33 4.33 0 00.99-3.102 4.405 4.405 0 00-2.85 1.475 4.12 4.12 0 00-1.016 2.987 3.644 3.644 0 002.876-1.36zm18.009 13.267h-4.206l-1.01 2.983h-1.782l3.984-11.036h1.851l3.984 11.036h-1.812l-1.009-2.983zm-3.77-1.376h3.334l-1.644-4.841h-.046l-1.645 4.84zm15.196.336c0 2.5-1.338 4.107-3.358 4.107a2.728 2.728 0 01-2.531-1.407h-.038v3.985h-1.652V19.352h1.599v1.338h.03a2.856 2.856 0 012.562-1.422c2.042 0 3.388 1.614 3.388 4.107zm-1.697 0c0-1.628-.842-2.7-2.127-2.7-1.261 0-2.11 1.094-2.11 2.7 0 1.622.849 2.707 2.11 2.707 1.285 0 2.127-1.063 2.127-2.707zm10.553 0c0 2.5-1.339 4.107-3.358 4.107a2.729 2.729 0 01-2.532-1.407h-.038v3.985h-1.651V19.352h1.598v1.338h.03a2.855 2.855 0 012.563-1.422c2.042 0 3.388 1.614 3.388 4.107zm-1.698 0c0-1.628-.842-2.7-2.126-2.7-1.262 0-2.11 1.094-2.11 2.7 0 1.622.848 2.707 2.11 2.707 1.284 0 2.126-1.063 2.126-2.707zm7.55.948c.123 1.095 1.186 1.813 2.639 1.813 1.392 0 2.393-.718 2.393-1.705 0-.857-.604-1.37-2.034-1.721l-1.43-.345c-2.027-.49-2.968-1.437-2.968-2.975 0-1.904 1.66-3.212 4.016-3.212 2.332 0 3.93 1.308 3.984 3.212H76.56c-.1-1.1-1.01-1.766-2.34-1.766-1.33 0-2.241.673-2.241 1.652 0 .78.581 1.24 2.004 1.59l1.216.3c2.264.535 3.205 1.444 3.205 3.058 0 2.065-1.645 3.358-4.26 3.358-2.448 0-4.1-1.263-4.207-3.259h1.69zm10.341-6.875v1.904h1.53v1.308h-1.53v4.436c0 .689.306 1.01.979 1.01.181-.004.363-.016.543-.039v1.3c-.303.057-.61.083-.917.077-1.63 0-2.265-.612-2.265-2.172V20.66h-1.17v-1.308h1.17v-1.904h1.66zm2.416 5.927c0-2.531 1.49-4.122 3.816-4.122 2.332 0 3.816 1.59 3.816 4.122 0 2.539-1.476 4.123-3.816 4.123s-3.816-1.584-3.816-4.123zm5.95 0c0-1.736-.796-2.761-2.134-2.761-1.338 0-2.133 1.033-2.133 2.761 0 1.744.794 2.761 2.133 2.761 1.338 0 2.134-1.017 2.134-2.76zm3.044-4.023h1.575v1.37h.038a1.922 1.922 0 011.936-1.454c.19 0 .38.02.565.062v1.544a2.305 2.305 0 00-.742-.1 1.664 1.664 0 00-1.72 1.852v4.772h-1.652v-8.046zm11.729 5.683c-.222 1.46-1.645 2.463-3.465 2.463-2.34 0-3.793-1.569-3.793-4.084 0-2.524 1.46-4.16 3.724-4.16 2.226 0 3.626 1.528 3.626 3.968v.566h-5.682v.1a2.09 2.09 0 00.568 1.627 2.088 2.088 0 001.596.651 1.821 1.821 0 001.858-1.131h1.568zm-5.583-2.402h4.023a1.933 1.933 0 00-1.195-1.896 1.945 1.945 0 00-.779-.146 2.034 2.034 0 00-1.894 1.258 2.045 2.045 0 00-.155.784zM41.514 8.056a2.345 2.345 0 012.495 2.635c0 1.694-.915 2.667-2.495 2.667H39.6V8.056h1.915zm-1.091 4.553h1A1.669 1.669 0 0043.17 10.7a1.673 1.673 0 00-1.749-1.896h-1v3.803zm4.517-1.253a1.897 1.897 0 013.686-.78c.083.252.113.517.088.78a1.894 1.894 0 01-1.887 2.08 1.896 1.896 0 01-1.887-2.08zm2.962 0c0-.868-.39-1.375-1.074-1.375-.686 0-1.073.507-1.073 1.375 0 .874.387 1.377 1.073 1.377.684 0 1.074-.506 1.074-1.377zm5.829 2.002h-.82l-.826-2.947h-.063l-.823 2.947h-.812l-1.103-4.001h.801l.717 3.053h.059l.823-3.053h.757l.823 3.053h.063l.713-3.053h.79l-1.099 4.001zm2.026-4.001h.76v.636h.06a1.198 1.198 0 011.194-.713 1.303 1.303 0 011.385 1.488v2.59h-.79v-2.392c0-.643-.28-.963-.863-.963a.918.918 0 00-.956 1.014v2.341h-.79V9.357zm4.657-1.562h.79v5.563h-.79V7.795zm1.888 3.561a1.897 1.897 0 113.774 0 1.896 1.896 0 11-3.774 0zm2.962 0c0-.867-.39-1.375-1.074-1.375-.686 0-1.072.508-1.072 1.375 0 .874.386 1.378 1.072 1.378.684 0 1.074-.507 1.074-1.378zm1.644.871c0-.72.536-1.136 1.488-1.195l1.084-.062v-.346c0-.422-.28-.661-.819-.661-.44 0-.746.162-.834.445h-.765c.081-.688.728-1.128 1.635-1.128 1.004 0 1.57.499 1.57 1.344v2.734h-.76v-.562h-.063a1.346 1.346 0 01-1.202.628 1.208 1.208 0 01-1.334-1.197zm2.572-.342v-.335l-.977.063c-.551.037-.801.224-.801.577 0 .36.312.57.742.57a.946.946 0 001.036-.875zm1.824-.529c0-1.265.65-2.066 1.661-2.066a1.32 1.32 0 011.228.702h.059V7.795h.79v5.563h-.757v-.632h-.063a1.388 1.388 0 01-1.257.698c-1.017 0-1.66-.8-1.66-2.068zm.816 0c0 .849.4 1.36 1.07 1.36.665 0 1.076-.519 1.076-1.357 0-.834-.415-1.36-1.077-1.36-.664 0-1.069.515-1.069 1.357zm6.189 0a1.895 1.895 0 113.774 0 1.894 1.894 0 01-1.887 2.08 1.896 1.896 0 01-1.887-2.08zm2.962 0c0-.868-.39-1.375-1.074-1.375-.686 0-1.072.507-1.072 1.375 0 .874.386 1.377 1.072 1.377.684 0 1.074-.506 1.074-1.377zm1.872-1.999h.76v.636h.059a1.198 1.198 0 011.194-.713 1.303 1.303 0 011.385 1.488v2.59h-.79v-2.392c0-.643-.279-.963-.863-.963a.919.919 0 00-.956 1.014v2.341h-.79V9.357zm7.861-.997v1.015h.866v.665h-.866v2.058c0 .419.172.602.565.602a2.6 2.6 0 00.301-.018v.658a2.57 2.57 0 01-.429.04c-.879 0-1.228-.309-1.228-1.08v-2.26h-.635v-.665h.635V8.36h.791zm1.946-.565h.782V10h.062a1.233 1.233 0 011.22-.717 1.318 1.318 0 011.379 1.492v2.583h-.791V10.97c0-.64-.298-.963-.855-.963a.937.937 0 00-.956.614.929.929 0 00-.052.4v2.337h-.79V7.795zm8.048 4.483a1.628 1.628 0 01-1.734 1.158 1.816 1.816 0 01-1.787-1.286 1.837 1.837 0 01-.062-.78 1.847 1.847 0 011.846-2.09c1.113 0 1.784.76 1.784 2.017v.275H98.22v.045a1.057 1.057 0 001.066 1.146.96.96 0 00.951-.485h.761zm-2.778-1.29h2.021a.953.953 0 00-.054-.396.954.954 0 00-.538-.567.967.967 0 00-.393-.073 1.024 1.024 0 00-1.036 1.036z" fill="#fff"/></g><defs><clipPath id="clip0_173_735"><path fill="#fff" transform="translate(.765 .297)" d="M0 0h119.971v35.547H0z"/></clipPath></defs></svg>