<svg width="160" height="111" fill="none" xmlns="http://www.w3.org/2000/svg"><path d="M4.225 8.516A5.785 5.785 0 012.293 6.88a3.816 3.816 0 01-.754-2.384 3.763 3.763 0 01.808-2.394A5.251 5.251 0 014.585.542 9.156 9.156 0 017.86 0a7.803 7.803 0 013.057.585c.88.349 1.638.944 2.183 1.712a4.51 4.51 0 01.776 2.665H9.748a1.636 1.636 0 00-.524-1.278 2.195 2.195 0 00-1.518-.434 3.133 3.133 0 00-1.091.185c-.277.102-.524.27-.72.487-.157.185-.242.42-.241.661a1.218 1.218 0 00.699 1.03c.692.374 1.425.672 2.183.888a10.658 10.658 0 014.007 2.167 4.217 4.217 0 011.354 3.25 4.043 4.043 0 01-.798 2.34 4.473 4.473 0 01-2.085 1.539 8.696 8.696 0 01-3.155.53 9.231 9.231 0 01-3.275-.584 5.566 5.566 0 01-2.51-1.831 4.958 4.958 0 01-.983-3.077h4.094c-.017.466.076.93.272 1.354.195.337.505.595.874.726.487.152.996.222 1.506.206a2.196 2.196 0 001.42-.369 1.161 1.161 0 00.458-.92 1.379 1.379 0 00-.207-.792 1.918 1.918 0 00-.775-.639 10.678 10.678 0 00-1.703-.65c-.97-.328-1.91-.741-2.806-1.235zM23.843 3.51v2.872h5.95v3.163h-5.95v3.25h7.052v3.251H19.738V.216h11.2v3.251l-7.095.043zm18.013 0v2.872h5.95v3.163h-5.95v3.25h7.052v3.251H37.762V.216h11.19v3.251l-7.096.043zM74.235.217h4.367l-5.098 10.25V16.1h-4.181v-5.634L64.213.216h4.367l2.795 6.61 2.86-6.61zm20.852 12.416a6.52 6.52 0 01-2.5 2.73 7.016 7.016 0 01-3.668.965 7.137 7.137 0 01-3.7-.964 6.52 6.52 0 01-2.5-2.73 9.193 9.193 0 01-.841-4.183v-.574a9.15 9.15 0 01.895-4.171A6.517 6.517 0 0185.218.964a7.478 7.478 0 017.347 0 6.628 6.628 0 012.522 2.742c.627 1.3.937 2.73.906 4.17v.575a9.194 9.194 0 01-.906 4.182zm-4.04-8.147a2.405 2.405 0 00-.93-.88 2.428 2.428 0 00-1.253-.28c-1.921 0-2.893 1.506-2.893 4.53v.595a6.46 6.46 0 00.732 3.38 2.409 2.409 0 002.183 1.171 2.382 2.382 0 002.184-1.181c.548-1.037.805-2.2.742-3.37v-.596a6.224 6.224 0 00-.764-3.37zm23.582 6.002a6.156 6.156 0 01-.764 3.164 4.911 4.911 0 01-2.184 1.993 8.642 8.642 0 01-6.735 0 5.113 5.113 0 01-2.326-2.004 5.96 5.96 0 01-.797-3.153V.217h4.127v10.271a2.8 2.8 0 00.568 1.95 2.249 2.249 0 001.714.596 2.194 2.194 0 001.692-.596 2.86 2.86 0 00.557-1.95V.217h4.148v10.271zm23.635 2.99h-5.142l-.818 2.622h-4.367L133.734.217h3.897l5.873 15.883h-4.366l-.874-2.622zm-1.015-3.25L135.688 5.2l-1.55 4.984 3.111.043zm21.692-6.718h-4.771V16.1h-4.116V3.51h-4.65V.218h13.537V3.51zM80.076 27.444L.196 47.206a.262.262 0 00-.185.314l10.906 46.925a.293.293 0 00.196.206L80.35 111h.12l68.548-16.891a.291.291 0 00.197-.206l10.775-46.589a.269.269 0 00-.197-.314L80.207 27.444h-.13zm64.52 61.995l-64.41 15.244h-.12L15.654 89.58a.273.273 0 01-.207-.206L7.226 50.922a.269.269 0 01.196-.303L80.12 33.284a.22.22 0 01.12 0l72.609 17.335a.274.274 0 01.197.314l-8.254 38.376a.258.258 0 01-.196.13z" fill="#fff"/><path d="M25.379 82L23 56.333l9.138-1.071c1.679-.197 3.105-.081 4.28.347 1.173.428 2.088 1.106 2.745 2.035.656.92 1.043 2.023 1.163 3.31.093 1.002-.004 1.904-.29 2.706a5.243 5.243 0 01-1.3 2.028 5.912 5.912 0 01-2.023 1.263l.024.25c.873-.06 1.712.12 2.517.542.812.42 1.499 1.061 2.06 1.925.56.855.898 1.913 1.015 3.175.126 1.361-.062 2.612-.565 3.752-.496 1.131-1.299 2.074-2.408 2.83-1.109.754-2.518 1.232-4.227 1.432L25.38 82zm4.414-5.002l3.934-.461c1.344-.158 2.298-.561 2.861-1.21.563-.657.8-1.47.71-2.44-.067-.71-.277-1.318-.632-1.826a3.153 3.153 0 00-1.422-1.125c-.586-.244-1.265-.32-2.038-.23l-4.045.474.632 6.818zm-.972-10.49l3.577-.42c.661-.077 1.236-.275 1.725-.594a3.163 3.163 0 001.12-1.272c.26-.52.359-1.119.296-1.796-.086-.927-.448-1.64-1.088-2.14-.632-.5-1.483-.688-2.553-.562l-3.666.43.589 6.354zm21.62 12.893l-1.058-19.318 4.764-.33 1.058 19.318-4.764.33zm1.199-21.974c-.709.05-1.33-.173-1.867-.666a2.694 2.694 0 01-.854-1.872 2.707 2.707 0 01.645-1.951c.478-.572 1.07-.882 1.779-.931.708-.05 1.327.177 1.856.679.535.493.824 1.108.864 1.846a2.746 2.746 0 01-.655 1.977c-.47.563-1.06.87-1.768.918zm25.826 6.958l-4.362.411a2.67 2.67 0 00-.504-1.122 2.589 2.589 0 00-.99-.794c-.4-.2-.877-.294-1.43-.28-.739.018-1.359.21-1.86.576-.5.357-.746.825-.734 1.404.009.462.18.849.516 1.16.335.31.903.553 1.706.726l3.128.628c1.68.345 2.94.935 3.778 1.772.838.836 1.271 1.95 1.299 3.345.025 1.268-.286 2.39-.932 3.363-.638.974-1.527 1.744-2.666 2.31-1.132.558-2.445.855-3.939.892-2.277.057-4.102-.431-5.475-1.464-1.366-1.042-2.182-2.484-2.45-4.326l4.688-.394c.157.778.513 1.366 1.066 1.764.553.39 1.255.574 2.106.552.837-.02 1.505-.218 2.006-.592.508-.382.76-.863.756-1.443a1.538 1.538 0 00-.572-1.183c-.365-.31-.922-.54-1.672-.69l-2.993-.593c-1.688-.336-2.952-.96-3.791-1.872-.833-.912-1.263-2.09-1.291-3.534-.025-1.243.253-2.322.833-3.235.587-.914 1.42-1.628 2.501-2.142 1.088-.514 2.368-.79 3.84-.826 2.172-.054 3.893.42 5.16 1.421 1.275 1.002 2.034 2.39 2.278 4.166zm18.098-5.237l-.076 4.031-10.361-.246.076-4.032 10.361.247zm-7.922-4.827l4.772.114-.34 18.04c-.009.496.051.884.18 1.164.13.272.313.465.55.58.244.115.527.177.848.184.224.006.449-.01.674-.047.225-.045.397-.078.517-.1l.675 4.01c-.24.079-.578.167-1.013.266-.436.108-.963.166-1.584.177-1.15.023-2.156-.173-3.015-.589a4.401 4.401 0 01-1.97-1.887c-.462-.843-.678-1.898-.647-3.166l.353-18.745zm14.913 24.513l1.009-19.321 4.619.305-.176 3.37.179.013c.376-1.179.949-2.05 1.719-2.613a3.81 3.81 0 012.599-.763c.238.016.495.05.769.102.274.051.514.114.72.186l-.249 4.755a5.657 5.657 0 00-.917-.263 7.498 7.498 0 00-1.081-.16c-.701-.046-1.336.085-1.906.392-.562.3-1.019.74-1.371 1.323-.344.584-.537 1.27-.579 2.058l-.57 10.93-4.765-.314zm25.022 2.552c-1.731-.204-3.189-.795-4.375-1.771-1.177-.984-2.038-2.26-2.582-3.828-.544-1.577-.723-3.35-.539-5.322.186-1.989.69-3.686 1.513-5.092.823-1.415 1.901-2.461 3.234-3.14 1.341-.686 2.877-.926 4.608-.722 1.731.205 3.185.8 4.362 1.783 1.185.977 2.05 2.253 2.593 3.83.545 1.568.724 3.346.538 5.334-.184 1.972-.688 3.665-1.512 5.08-.822 1.406-1.904 2.452-3.245 3.138-1.333.678-2.864.915-4.595.71zm.409-4.132c.787.093 1.468-.08 2.042-.519.576-.447 1.038-1.094 1.387-1.94.357-.844.588-1.826.693-2.945.104-1.12.06-2.134-.132-3.044-.186-.909-.518-1.65-.998-2.221-.48-.572-1.113-.905-1.901-.998-.795-.094-1.487.081-2.077.527-.583.446-1.052 1.092-1.409 1.936-.35.846-.577 1.829-.682 2.948-.104 1.12-.064 2.134.121 3.043.193.91.533 1.65 1.02 2.224.496.565 1.141.895 1.936.989z" fill="#fff"/></svg>