<svg width="120" height="36" fill="none" xmlns="http://www.w3.org/2000/svg"><g clip-path="url(#clip0_173_715)"><path d="M115.542.297H4.458A4.443 4.443 0 00.015 4.74V31.4a4.443 4.443 0 004.443 4.444h111.084a4.443 4.443 0 004.443-4.444V4.74a4.443 4.443 0 00-4.443-4.443z" fill="#000"/><path d="M115.542 1.008a3.736 3.736 0 013.732 3.732V31.4a3.737 3.737 0 01-3.732 3.733H4.458A3.737 3.737 0 01.726 31.4V4.74a3.737 3.737 0 013.732-3.732h111.084zm0-.711H4.458A4.456 4.456 0 00.015 4.74V31.4a4.456 4.456 0 004.443 4.444h111.084a4.458 4.458 0 004.443-4.444V4.74a4.452 4.452 0 00-4.443-4.443z" fill="#B3B4B5"/><path d="M42.154 9.4a2.406 2.406 0 01-.662 1.78 2.585 2.585 0 01-1.959.789 2.745 2.745 0 01-2.77-2.785 2.746 2.746 0 012.77-2.786 2.75 2.75 0 011.094.224 2.2 2.2 0 01.834.596l-.468.469a1.8 1.8 0 00-1.46-.633 2.061 2.061 0 00-2.07 2.13 2.096 2.096 0 003.56 1.534c.273-.295.431-.678.446-1.08h-1.936v-.64h2.584c.024.132.037.267.037.402zm4.096-2.227h-2.428v1.69h2.19v.64h-2.19v1.691h2.428v.656h-3.113V6.518h3.113v.655zm2.89 4.677h-.686V7.173h-1.49v-.655h3.664v.655H49.14v4.677zm4.14 0V6.518h.685v5.332h-.685zm3.724 0h-.686V7.173H54.83v-.655h3.664v.655h-1.49v4.677zm8.426-.69a2.768 2.768 0 01-3.91 0 2.725 2.725 0 01-.786-1.976 2.728 2.728 0 01.785-1.977 2.76 2.76 0 013.907.003 2.725 2.725 0 01.788 1.974 2.73 2.73 0 01-.785 1.977zm-3.405-.446a2.05 2.05 0 002.897 0 2.087 2.087 0 00.593-1.53 2.088 2.088 0 00-.593-1.53 2.05 2.05 0 00-2.897 0 2.088 2.088 0 00-.591 1.53 2.088 2.088 0 00.591 1.53zm5.151 1.136V6.518h.834l2.592 4.147h.03l-.03-1.027v-3.12h.685v5.332h-.715L67.861 7.5h-.03l.03 1.028v3.322h-.685z" fill="#fff" stroke="#fff" stroke-width=".178" stroke-miterlimit="10"/><path d="M60.565 19.627a3.779 3.779 0 103.794 3.78 3.726 3.726 0 00-3.794-3.78zm0 6.07a2.296 2.296 0 112.133-2.29 2.188 2.188 0 01-2.133 2.29zm-8.276-6.07a3.78 3.78 0 103.794 3.78 3.73 3.73 0 00-2.335-3.512 3.726 3.726 0 00-1.46-.268zm0 6.07a2.296 2.296 0 112.133-2.29 2.186 2.186 0 01-2.133 2.29zm-9.846-4.91v1.603h3.837a3.346 3.346 0 01-.873 2.019 3.93 3.93 0 01-2.964 1.174 4.267 4.267 0 010-8.533 4.089 4.089 0 012.892 1.145l1.131-1.13a5.594 5.594 0 00-4.023-1.619 5.868 5.868 0 00-5.956 5.87 5.873 5.873 0 005.956 5.87 5.368 5.368 0 004.095-1.646 5.299 5.299 0 001.389-3.751 5.23 5.23 0 00-.086-1.003h-5.398zm40.264 1.245a3.512 3.512 0 00-3.235-2.405 3.591 3.591 0 00-3.565 3.78 3.697 3.697 0 003.75 3.78 3.76 3.76 0 003.15-1.676l-1.288-.859a2.159 2.159 0 01-1.861 1.045 1.924 1.924 0 01-1.833-1.145l5.054-2.09-.172-.43zm-5.154 1.26a2.074 2.074 0 011.976-2.205 1.464 1.464 0 011.403.802l-3.379 1.403zm-4.109 3.665h1.661v-11.11h-1.66v11.11zm-2.72-6.486h-.057a2.621 2.621 0 00-1.99-.844 3.783 3.783 0 000 7.56 2.577 2.577 0 001.99-.86h.057v.544c0 1.446-.773 2.22-2.019 2.22a2.092 2.092 0 01-1.904-1.347l-1.446.602a3.603 3.603 0 003.35 2.233c1.948 0 3.594-1.145 3.594-3.937v-6.786h-1.575v.615zm-1.904 5.226a2.3 2.3 0 010-4.581 2.131 2.131 0 012.019 2.305 2.112 2.112 0 01-2.019 2.276zm21.667-9.85h-3.974v11.11h1.658v-4.21h2.316a3.456 3.456 0 100-6.9zm.042 5.355h-2.358v-3.808h2.358a1.908 1.908 0 011.796 1.166 1.896 1.896 0 010 1.476 1.892 1.892 0 01-1.054 1.032 1.904 1.904 0 01-.742.134zm10.249-1.596a3.11 3.11 0 00-2.96 1.701l1.473.615a1.57 1.57 0 011.515-.815 1.596 1.596 0 011.744 1.43v.114a3.672 3.672 0 00-1.73-.43c-1.586 0-3.202.873-3.202 2.502a2.577 2.577 0 001.745 2.317c.327.11.672.153 1.014.127a2.341 2.341 0 002.116-1.086h.057v.858h1.6v-4.26c0-1.972-1.472-3.073-3.372-3.073zm-.2 6.089c-.544 0-1.301-.271-1.301-.943 0-.858.942-1.187 1.757-1.187a2.956 2.956 0 011.516.372 2.014 2.014 0 01-1.972 1.758zm9.404-5.846l-1.901 4.817h-.057l-1.973-4.817h-1.786l2.958 6.732-1.687 3.745h1.73l4.56-10.477h-1.844zm-14.936 7.108h1.658v-11.11h-1.658v11.11z" fill="#fff"/><path d="M9.288 6.996a1.78 1.78 0 00-.411 1.248v19.654c-.028.454.12.9.411 1.249l.066.064 11.01-11.01v-.26L9.354 6.931l-.066.065z" fill="url(#paint0_linear_173_715)"/><path d="M24.033 21.873l-3.67-3.672v-.26l3.671-3.67.083.047 4.348 2.47c1.242.706 1.242 1.86 0 2.567l-4.348 2.47-.084.048z" fill="url(#paint1_linear_173_715)"/><path d="M24.117 21.825l-3.753-3.754L9.288 29.147a1.445 1.445 0 001.847.054l12.982-7.376z" fill="url(#paint2_linear_173_715)"/><path d="M24.117 14.318L11.135 6.94a1.446 1.446 0 00-1.847.055L20.364 18.07l3.753-3.754z" fill="url(#paint3_linear_173_715)"/><path opacity=".2" d="M24.034 21.742l-12.899 7.33a1.479 1.479 0 01-1.78.009l-.067.066.066.064a1.48 1.48 0 001.781-.01l12.982-7.376-.083-.083z" fill="#000"/><path opacity=".12" d="M9.288 29.017a1.78 1.78 0 01-.41-1.248v.13c-.028.453.119.9.41 1.248l.067-.066-.067-.064zm19.177-9.793l-4.43 2.518.082.083 4.348-2.47a1.56 1.56 0 00.932-1.284 1.655 1.655 0 01-.932 1.153z" fill="#000"/><path opacity=".25" d="M11.135 7.072l17.33 9.846a1.655 1.655 0 01.932 1.153 1.558 1.558 0 00-.932-1.283l-17.33-9.846c-1.242-.706-2.258-.12-2.258 1.303v.13c0-1.423 1.016-2.01 2.258-1.303z" fill="#fff"/></g><defs><linearGradient id="paint0_linear_173_715" x1="19.387" y1="8.037" x2="4.473" y2="22.951" gradientUnits="userSpaceOnUse"><stop stop-color="#00A0FF"/><stop offset=".007" stop-color="#00A1FF"/><stop offset=".26" stop-color="#00BEFF"/><stop offset=".512" stop-color="#00D2FF"/><stop offset=".76" stop-color="#00DFFF"/><stop offset="1" stop-color="#00E3FF"/></linearGradient><linearGradient id="paint1_linear_173_715" x1="30.082" y1="18.072" x2="8.579" y2="18.072" gradientUnits="userSpaceOnUse"><stop stop-color="#FFE000"/><stop offset=".409" stop-color="#FFBD00"/><stop offset=".775" stop-color="orange"/><stop offset="1" stop-color="#FF9C00"/></linearGradient><linearGradient id="paint2_linear_173_715" x1="22.078" y1="20.111" x2="1.853" y2="40.336" gradientUnits="userSpaceOnUse"><stop stop-color="#FF3A44"/><stop offset="1" stop-color="#C31162"/></linearGradient><linearGradient id="paint3_linear_173_715" x1="6.499" y1=".453" x2="15.531" y2="9.485" gradientUnits="userSpaceOnUse"><stop stop-color="#32A071"/><stop offset=".069" stop-color="#2DA771"/><stop offset=".476" stop-color="#15CF74"/><stop offset=".801" stop-color="#06E775"/><stop offset="1" stop-color="#00F076"/></linearGradient><clipPath id="clip0_173_715"><path fill="#fff" transform="translate(.015 .297)" d="M0 0h119.971v35.547H0z"/></clipPath></defs></svg>