<svg width="168" height="96" fill="none" xmlns="http://www.w3.org/2000/svg"><path d="M0 0l167.748 1.172v78l-.37-1.172c-3.24 0-6.468.394-9.613 1.172L95.124 94.68a39.985 39.985 0 01-18.774.109L9.519 79.063A40.004 40.004 0 00.357 78H0V0z" fill="#fff"/><path d="M85.089 8L10.183 26.692a.247.247 0 00-.176.299l10.186 44.36a.26.26 0 00.066.119.251.251 0 00.12.066l64.885 15.456a.26.26 0 00.124 0l64.318-15.961a.26.26 0 00.186-.186l10.103-44.03a.247.247 0 00-.185-.288L85.182 8h-.093zm60.498 58.61L85.182 81.036h-.114L24.704 66.734a.248.248 0 01-.185-.185l-7.745-36.333a.258.258 0 01.185-.289l68.223-16.425h.113l68.088 16.364a.257.257 0 01.186.288l-7.745 36.281a.249.249 0 01-.237.186v-.01z" fill="#FE7F2D"/><path d="M30.379 60L28 34.333l9.138-1.071c1.679-.197 3.105-.081 4.28.347 1.173.428 2.088 1.106 2.745 2.035.656.92 1.043 2.023 1.163 3.31.093 1.002-.004 1.904-.29 2.706a5.243 5.243 0 01-1.3 2.028 5.912 5.912 0 01-2.023 1.263l.024.25c.873-.06 1.712.12 2.517.542.812.42 1.499 1.061 2.06 1.925.56.855.898 1.913 1.015 3.175.126 1.361-.062 2.612-.565 3.752-.496 1.131-1.299 2.074-2.408 2.83-1.109.754-2.518 1.232-4.227 1.432L30.38 60zm4.414-5.002l3.934-.461c1.344-.158 2.298-.561 2.861-1.21.563-.657.8-1.47.71-2.44-.067-.71-.277-1.318-.632-1.826a3.153 3.153 0 00-1.422-1.125c-.586-.244-1.265-.32-2.038-.23l-4.045.474.632 6.818zm-.972-10.49l3.577-.42c.661-.077 1.236-.275 1.725-.594a3.163 3.163 0 001.12-1.272c.26-.52.359-1.119.296-1.796-.086-.927-.448-1.64-1.088-2.14-.632-.5-1.483-.688-2.553-.562l-3.666.43.589 6.354zm21.62 12.893l-1.058-19.318 4.764-.33 1.058 19.318-4.764.33zm1.199-21.974c-.709.05-1.33-.173-1.867-.666a2.694 2.694 0 01-.854-1.872 2.707 2.707 0 01.645-1.951c.478-.572 1.07-.882 1.779-.931.708-.05 1.327.177 1.856.679.535.493.824 1.108.864 1.846a2.746 2.746 0 01-.655 1.977c-.47.563-1.06.87-1.768.918zm25.826 6.958l-4.362.411a2.67 2.67 0 00-.504-1.122 2.589 2.589 0 00-.99-.794c-.4-.2-.877-.294-1.43-.28-.739.018-1.359.21-1.86.576-.5.357-.746.825-.734 1.404.009.462.18.849.516 1.16.335.31.903.553 1.706.726l3.128.628c1.68.345 2.94.935 3.778 1.771.838.837 1.271 1.952 1.299 3.346.025 1.268-.286 2.39-.932 3.363-.638.974-1.527 1.744-2.666 2.31-1.132.557-2.445.855-3.939.892-2.277.057-4.102-.432-5.475-1.464-1.366-1.042-2.182-2.484-2.45-4.326l4.688-.393c.157.777.513 1.365 1.066 1.763.553.39 1.255.573 2.106.552.837-.02 1.505-.218 2.006-.592.508-.382.76-.863.756-1.443a1.538 1.538 0 00-.572-1.183c-.365-.31-.922-.54-1.672-.69l-2.993-.593c-1.688-.336-2.952-.96-3.791-1.872-.833-.912-1.263-2.09-1.291-3.534-.025-1.243.253-2.322.832-3.235.588-.914 1.422-1.628 2.502-2.142 1.088-.514 2.368-.79 3.84-.826 2.172-.054 3.893.42 5.16 1.421 1.275 1.002 2.034 2.39 2.278 4.166zm18.098-5.237l-.076 4.031-10.361-.246.076-4.032 10.361.247zm-7.922-4.827l4.772.114-.34 18.04c-.009.496.051.884.18 1.164.13.272.313.465.55.58.244.115.527.177.848.184.224.006.449-.01.674-.047.225-.045.397-.078.517-.1l.675 4.01c-.24.079-.578.167-1.013.266-.436.108-.963.166-1.584.177-1.15.023-2.156-.173-3.015-.589a4.401 4.401 0 01-1.97-1.887c-.462-.842-.678-1.898-.647-3.166l.353-18.745zm14.913 24.513l1.009-19.321 4.619.305-.176 3.37.179.013c.376-1.179.949-2.05 1.719-2.613a3.81 3.81 0 012.599-.763c.238.016.495.05.769.102.274.051.514.114.72.186l-.249 4.755a5.657 5.657 0 00-.917-.263 7.498 7.498 0 00-1.081-.16c-.701-.046-1.336.085-1.906.392-.562.3-1.019.74-1.371 1.323-.344.584-.537 1.27-.579 2.058l-.57 10.93-4.765-.314zm25.022 2.552c-1.731-.204-3.189-.795-4.375-1.771-1.177-.984-2.038-2.26-2.582-3.828-.544-1.576-.723-3.35-.539-5.322.186-1.989.69-3.686 1.513-5.092.823-1.415 1.901-2.461 3.234-3.14 1.341-.686 2.877-.926 4.608-.722 1.731.205 3.185.8 4.362 1.783 1.185.977 2.05 2.253 2.593 3.83.545 1.568.724 3.346.538 5.334-.184 1.972-.688 3.665-1.512 5.08-.822 1.406-1.904 2.452-3.245 3.138-1.333.678-2.864.915-4.595.71zm.409-4.132c.787.093 1.468-.08 2.042-.519.576-.447 1.038-1.093 1.387-1.94.357-.844.588-1.826.693-2.945.104-1.12.06-2.134-.132-3.044-.186-.909-.518-1.65-.998-2.221-.48-.572-1.113-.905-1.901-.998-.795-.094-1.487.081-2.077.527-.583.446-1.052 1.092-1.409 1.937-.35.845-.577 1.828-.682 2.947-.104 1.12-.064 2.134.121 3.043.193.91.533 1.65 1.02 2.224.496.565 1.141.895 1.936.989z" fill="#FE7F2D"/></svg>