<svg width="250" height="223" fill="none" xmlns="http://www.w3.org/2000/svg"><g clip-path="url(#clip0_382_3)"><path fill-rule="evenodd" clip-rule="evenodd" d="M249.92-30l-56.724 14.132c-.196 0-.196.196-.196.196l7.655 33.563s0 .196.196.196l49.069 11.777 48.676-11.973s.196 0 .196-.196l7.655-33.367c0-.196 0-.196-.196-.196L249.92-30zm45.732 44.358L249.92 25.153l-45.732-10.795s-.196 0-.196-.196l-5.889-27.479c0-.098 0-.147.025-.171.024-.025.073-.025.172-.025l51.62-12.365 51.424 12.365c.196 0 .196.196.196.196l-5.888 27.675zM187.92 25l-56.724 14.132c-.196 0-.196.196-.196.196l7.655 33.563s0 .196.196.196l49.069 11.777 48.676-11.973s.196 0 .196-.196l7.655-33.367c0-.098 0-.147-.025-.172-.024-.024-.073-.024-.171-.024L187.92 25zm45.732 44.358L187.92 80.153l-45.732-10.795s-.197 0-.197-.196l-5.888-27.479c0-.098 0-.147.025-.171.024-.025.073-.025.171-.025l51.621-12.365 51.424 12.365c.196 0 .196.196.196.196l-5.888 27.675zM-56.804 94.831L-.08 80.699l56.33 14.132c.197 0 .197 0 .197.196l-7.655 33.367c0 .196-.196.196-.196.196L-.08 140.563l-49.069-11.776c-.196 0-.196-.197-.196-.197L-57 95.027s0-.196.196-.196zM-.08 135.852l45.732-10.795 5.888-27.675s0-.196-.196-.196L-.08 84.821-51.7 97.186c-.099 0-.148 0-.172.025-.025.024-.025.073-.025.171l5.888 27.479c0 .196.197.196.197.196L-.08 135.852zm193.276-41.021l56.724-14.132 56.331 14.132c.196 0 .196 0 .196.196l-7.655 33.367c0 .196-.196.196-.196.196l-48.676 11.973-49.069-11.776c-.196 0-.196-.197-.196-.197L193 95.027s0-.196.196-.196zm56.724 41.021l45.732-10.795 5.888-27.675s0-.196-.196-.196L249.92 84.821l-51.621 12.365c-.098 0-.147 0-.171.025-.025.024-.025.073-.025.171l5.888 27.479c0 .196.197.196.197.196l45.732 10.795zm-187 .197L6.196 150.181c-.196 0-.196.196-.196.196l7.655 33.563s0 .196.196.196l49.069 11.777 48.676-11.973s.196 0 .196-.196l7.655-33.367c0-.196 0-.196-.196-.196L62.92 136.049zm45.732 44.358L62.92 191.202l-45.732-10.795s-.197 0-.197-.196l-5.888-27.479c0-.098 0-.147.025-.172.024-.024.073-.024.171-.024l51.62-12.365 51.425 12.365c.196 0 .196.196.196.196l-5.888 27.675zm79.268-44.358l-56.724 14.132c-.196 0-.196.196-.196.196l7.655 33.563s0 .196.196.196l49.069 11.777 48.676-11.973s.196 0 .196-.196l7.655-33.367c0-.196 0-.196-.196-.196l-56.331-14.132zm45.732 44.358l-45.732 10.795-45.732-10.795s-.197 0-.197-.196l-5.888-27.479c0-.098 0-.147.025-.172.024-.024.073-.024.171-.024l51.621-12.365 51.424 12.365c.196 0 .196.196.196.196l-5.888 27.675zM124.92 80.699L68.196 94.831c-.196 0-.196.196-.196.196l7.655 33.563s0 .197.196.197l49.069 11.776 48.676-11.973s.196 0 .196-.196l7.655-33.367c0-.196 0-.196-.196-.196L124.92 80.699zm45.732 44.358l-45.732 10.795-45.732-10.795s-.197 0-.197-.196l-5.888-27.479c0-.098 0-.147.025-.171.024-.025.073-.025.171-.025l51.621-12.365 51.424 12.365c.196 0 .196.196.196.196l-5.888 27.675zM6.196 39.132L62.92 25l56.331 14.132c.098 0 .147 0 .171.024.025.025.025.074.025.172l-7.655 33.367c0 .196-.196.196-.196.196L62.92 84.864 13.85 73.087c-.196 0-.197-.196-.197-.196L6 39.328s0-.196.196-.196zM62.92 80.153l45.732-10.795 5.888-27.675s0-.196-.196-.196L62.92 29.122 11.3 41.487c-.099 0-.148 0-.172.025-.025.024-.025.073-.025.171l5.888 27.479c0 .196.197.196.197.196L62.92 80.153zm5.276-96.021L124.92-30l56.331 14.132c.196 0 .196 0 .196.196l-7.655 33.367c0 .196-.196.196-.196.196L124.92 29.864 75.851 18.087c-.196 0-.196-.196-.196-.196L68-15.672s0-.196.197-.196zm56.724 41.021l45.732-10.795 5.888-27.675s0-.196-.196-.196L124.92-25.878 73.3-13.513c-.099 0-.148 0-.172.025-.025.024-.025.073-.025.171l5.889 27.479c0 .196.196.196.196.196l45.732 10.795zM-.08-30l-56.724 14.132c-.196 0-.196.196-.196.196l7.655 33.563s0 .196.196.196L-.08 29.864 48.596 17.89s.196 0 .196-.196l7.655-33.367c0-.196 0-.196-.196-.196L-.08-30zm45.732 44.358L-.08 25.153l-45.732-10.795s-.196 0-.196-.196l-5.889-27.479c0-.098 0-.147.025-.171.024-.025.073-.025.172-.025L-.08-25.878l51.424 12.365c.196 0 .196.196.196.196l-5.888 27.675zm147.544 192.836l56.724-14.132 56.331 14.132c.098 0 .147 0 .172.024.024.025.024.074.024.172l-7.655 33.367c0 .196-.196.196-.196.196l-48.676 11.973-49.069-11.777c-.196 0-.196-.196-.196-.196L193 207.39s0-.196.196-.196zm56.724 41.021l45.732-10.795 5.888-27.675s0-.196-.196-.196l-51.424-12.365-51.62 12.365c-.197 0-.197 0-.197.196l5.889 27.479c0 .196.196.196.196.196l45.732 10.795zm-125-55.153l-56.724 14.132c-.196 0-.196.196-.196.196l7.655 33.563s0 .196.196.196l49.069 11.777 48.676-11.973s.196 0 .196-.196l7.655-33.367c0-.098 0-.147-.024-.172-.025-.024-.074-.024-.172-.024l-56.331-14.132zm45.732 44.358l-45.732 10.795-45.732-10.795s-.196 0-.196-.196l-5.889-27.479c0-.196 0-.196.197-.196l51.62-12.365 51.424 12.365c.196 0 .196.196.196.196l-5.888 27.675zm-227.455-30.226L-.08 193.062l56.33 14.132c.099 0 .148 0 .173.024.024.025.024.074.024.172l-7.655 33.367c0 .196-.196.196-.196.196L-.08 252.926l-49.069-11.777c-.196 0-.196-.196-.196-.196L-57 207.39s0-.196.197-.196zM-.08 248.215l45.732-10.795 5.888-27.675s0-.196-.196-.196L-.08 197.184l-51.62 12.365c-.197 0-.197 0-.197.196l5.889 27.479c0 .196.196.196.196.196L-.08 248.215z" fill="#F5F3EB"/></g><defs><clipPath id="clip0_382_3"><path fill="#fff" d="M0 0h250v223H0z"/></clipPath></defs></svg>