<svg width="121" height="36" viewBox="0 0 121 36" fill="none" xmlns="http://www.w3.org/2000/svg">
<g clip-path="url(#clip0_173_735)">
<path d="M111.181 0.296991H10.3237C9.95609 0.296991 9.59289 0.296991 9.22623 0.298768C8.91929 0.300545 8.6148 0.305708 8.30492 0.310054C7.63171 0.317076 6.96009 0.369574 6.29588 0.467091C5.63262 0.566732 4.99012 0.754582 4.39014 1.02429C3.79088 1.29628 3.24333 1.6497 2.76733 2.07173C2.28885 2.49258 1.88999 2.97902 1.5861 3.51235C1.28137 4.04462 1.07007 4.61499 0.959497 5.20377C0.847872 5.79182 0.787806 6.38663 0.779837 6.9829C0.770533 7.25536 0.769551 7.52874 0.764648 7.80124V28.3422C0.769551 28.6181 0.770533 28.8854 0.779837 29.1615C0.787808 29.7578 0.847875 30.3526 0.959497 30.9405C1.06976 31.5297 1.28108 32.1004 1.5861 32.6328C1.88985 33.1644 2.28877 33.6489 2.76733 34.0674C3.24153 34.4913 3.78943 34.845 4.39014 35.1149C4.99011 35.3853 5.63254 35.5743 6.29588 35.6754C6.9602 35.7722 7.63175 35.8247 8.30492 35.8326C8.6148 35.8386 8.91929 35.8421 9.22623 35.8421C9.59288 35.8438 9.95618 35.8438 10.3237 35.8438H111.181C111.542 35.8438 111.908 35.8438 112.268 35.8421C112.574 35.8421 112.887 35.8386 113.192 35.8326C113.864 35.8252 114.535 35.7727 115.198 35.6754C115.864 35.5736 116.508 35.3847 117.11 35.1149C117.711 34.8448 118.259 34.4912 118.732 34.0674C119.21 33.6473 119.609 33.1632 119.917 32.6328C120.22 32.1 120.429 31.5293 120.537 30.9405C120.649 30.3525 120.711 29.7578 120.724 29.1615C120.727 28.8854 120.727 28.6181 120.727 28.3422C120.735 28.0194 120.735 27.6983 120.735 27.3702V8.77148C120.735 8.44604 120.735 8.1232 120.727 7.80124C120.727 7.52874 120.727 7.25536 120.724 6.98286C120.711 6.38654 120.649 5.79186 120.537 5.20374C120.429 4.6153 120.219 4.04496 119.917 3.51231C119.298 2.44331 118.316 1.57315 117.11 1.02421C116.508 0.75516 115.864 0.56736 115.198 0.467011C114.535 0.369064 113.865 0.316548 113.192 0.30993C112.887 0.305593 112.574 0.300385 112.268 0.298652C111.908 0.296875 111.542 0.296875 111.181 0.296875V0.296991Z" fill="#B3B4B5"/>
<path d="M9.14483 35.0689C8.83884 35.0689 8.54025 35.0654 8.23666 35.0594C7.60775 35.0522 6.98031 35.0036 6.35949 34.9144C5.7806 34.8262 5.21982 34.662 4.69564 34.4274C4.17626 34.1947 3.70254 33.8896 3.29264 33.5238C2.8768 33.1622 2.5306 32.7429 2.26774 32.2825C2.002 31.819 1.81809 31.3222 1.72241 30.8095C1.6191 30.2585 1.5632 29.7014 1.5552 29.1428C1.54883 28.9554 1.5405 28.3312 1.5405 28.3312V7.79813C1.5405 7.79813 1.54937 7.18357 1.55525 7.00301C1.56291 6.44542 1.61848 5.88914 1.72149 5.33901C1.81734 4.82483 2.00139 4.32662 2.26728 3.86164C2.52916 3.40149 2.87345 2.98188 3.28678 2.61906C3.69965 2.2528 4.17488 1.94613 4.69514 1.71023C5.21813 1.47636 5.77785 1.31338 6.35556 1.22674C6.97843 1.13659 7.60804 1.08784 8.23913 1.08092L9.14532 1.07007H112.355L113.272 1.08136C113.898 1.08793 114.522 1.13624 115.138 1.22587C115.722 1.31359 116.288 1.47771 116.816 1.71284C117.859 2.18824 118.707 2.94037 119.242 3.86381C119.504 4.32558 119.685 4.81972 119.779 5.32947C119.884 5.88411 119.942 6.44476 119.954 7.00692C119.957 7.25865 119.957 7.52905 119.957 7.79813C119.965 8.13146 119.965 8.44871 119.965 8.76858V27.3712C119.965 27.6941 119.965 28.0093 119.957 28.3269C119.957 28.6159 119.957 28.8808 119.953 29.1532C119.942 29.7054 119.884 30.256 119.782 30.8007C119.688 31.3172 119.505 31.8179 119.239 32.2852C118.974 32.7406 118.63 33.1563 118.22 33.5169C117.809 33.8846 117.334 34.1916 116.814 34.4257C116.287 34.6621 115.721 34.8269 115.138 34.9144C114.518 35.0042 113.89 35.0526 113.262 35.0594C112.967 35.0654 112.659 35.0689 112.361 35.0689L111.271 35.0706L9.14483 35.0689Z" fill="black"/>
<path d="M29.9107 18.3376C29.9203 17.5959 30.1173 16.8686 30.4834 16.2234C30.8496 15.5783 31.373 15.0362 32.0049 14.6478C31.6034 14.0744 31.0739 13.6026 30.4582 13.2697C29.8424 12.9369 29.1576 12.7522 28.4581 12.7303C26.9658 12.5736 25.519 13.6232 24.7586 13.6232C23.9834 13.6232 22.8126 12.7459 21.5518 12.7718C20.7363 12.7981 19.9416 13.0353 19.2449 13.4601C18.5483 13.8849 17.9737 14.4829 17.5769 15.1959C15.8582 18.1716 17.1402 22.5448 18.7866 24.9501C19.6103 26.1279 20.573 27.4435 21.8326 27.3969C23.0652 27.3458 23.5256 26.6108 25.0135 26.6108C26.4876 26.6108 26.9195 27.3968 28.2047 27.3672C29.5274 27.3458 30.3608 26.1842 31.1555 24.9952C31.7474 24.156 32.2028 23.2284 32.505 22.247C31.7365 21.922 31.0807 21.378 30.6194 20.6828C30.1581 19.9875 29.9116 19.1719 29.9107 18.3376Z" fill="white"/>
<path d="M27.4831 11.1484C28.2043 10.2826 28.5596 9.16988 28.4736 8.04639C27.3717 8.16212 26.354 8.6887 25.6231 9.52122C25.2657 9.92796 24.992 10.4011 24.8176 10.9137C24.6433 11.4263 24.5715 11.9682 24.6067 12.5084C25.1578 12.5141 25.703 12.3946 26.2013 12.1591C26.6995 11.9235 27.1378 11.578 27.4831 11.1484Z" fill="white"/>
<path d="M45.4921 24.4151H41.2857L40.2755 27.3978H38.4938L42.4781 16.3623H44.3292L48.3135 27.3978H46.5014L45.4921 24.4151ZM41.7213 23.0386H45.0556L43.4119 18.1979H43.3659L41.7213 23.0386Z" fill="white"/>
<path d="M56.9181 23.3755C56.9181 25.8758 55.58 27.4822 53.5605 27.4822C53.0489 27.5089 52.5402 27.3911 52.0925 27.1422C51.6447 26.8933 51.2762 26.5232 51.029 26.0745H50.9908V30.0597H49.3393V19.3523H50.9378V20.6905H50.9682C51.2268 20.2439 51.6016 19.8759 52.0526 19.6253C52.5038 19.3749 53.0144 19.2514 53.5301 19.2681C55.5721 19.2681 56.9181 20.8823 56.9181 23.3755ZM55.2207 23.3755C55.2207 21.7466 54.3788 20.6758 53.0944 20.6758C51.8326 20.6758 50.9838 21.7692 50.9838 23.3755C50.9838 24.9967 51.8326 26.0823 53.0944 26.0823C54.3788 26.0823 55.2207 25.0193 55.2207 23.3755Z" fill="white"/>
<path d="M65.7736 23.3755C65.7736 25.8758 64.4354 27.4822 62.416 27.4822C61.9044 27.5089 61.3956 27.3911 60.9479 27.1422C60.5002 26.8933 60.1316 26.5232 59.8844 26.0745H59.8462V30.0597H58.1947V19.3523H59.7933V20.6904H59.8236C60.0822 20.2439 60.457 19.8759 60.9082 19.6253C61.3593 19.3749 61.8698 19.2514 62.3856 19.2681C64.4276 19.2681 65.7736 20.8823 65.7736 23.3755ZM64.0761 23.3755C64.0761 21.7466 63.2344 20.6757 61.9499 20.6757C60.688 20.6757 59.8393 21.7692 59.8393 23.3755C59.8393 24.9967 60.688 26.0823 61.9499 26.0823C63.2344 26.0823 64.0761 25.0192 64.0761 23.3755Z" fill="white"/>
<path d="M71.6264 24.3232C71.7487 25.4175 72.8119 26.1361 74.2647 26.1361C75.6567 26.1361 76.6581 25.4175 76.6581 24.4308C76.6581 23.5743 76.0541 23.0613 74.6239 22.7098L73.1937 22.3653C71.1673 21.8758 70.2265 20.9282 70.2265 19.3904C70.2265 17.4863 71.8859 16.1785 74.2421 16.1785C76.574 16.1785 78.1725 17.4863 78.2264 19.3904H76.5592C76.4594 18.2891 75.5491 17.6243 74.2186 17.6243C72.8882 17.6243 71.9778 18.2969 71.9778 19.2758C71.9778 20.056 72.5593 20.5151 73.9817 20.8666L75.1975 21.1651C77.4617 21.7005 78.4025 22.6101 78.4025 24.2242C78.4025 26.2888 76.7579 27.5819 74.1422 27.5819C71.6949 27.5819 70.0426 26.3192 69.9358 24.3231L71.6264 24.3232Z" fill="white"/>
<path d="M81.9667 17.448V19.3521H83.4967V20.6599H81.9667V25.0955C81.9667 25.7845 82.2731 26.1056 82.9456 26.1056C83.1273 26.1024 83.3086 26.0897 83.4889 26.0674V27.3674C83.1865 27.424 82.8792 27.4496 82.5716 27.4438C80.9427 27.4438 80.3074 26.8319 80.3074 25.2716V20.6599H79.1375V19.3521H80.3074V17.448H81.9667Z" fill="white"/>
<path d="M84.3828 23.3754C84.3828 20.8439 85.8737 19.2532 88.1987 19.2532C90.5312 19.2532 92.0153 20.8439 92.0153 23.3754C92.0153 25.9139 90.5392 27.4976 88.1987 27.4976C85.859 27.4976 84.3828 25.9139 84.3828 23.3754ZM90.333 23.3754C90.333 21.6388 89.5369 20.6139 88.1987 20.6139C86.8605 20.6139 86.0655 21.6466 86.0655 23.3754C86.0655 25.1189 86.8605 26.136 88.1987 26.136C89.5369 26.136 90.333 25.1189 90.333 23.3754Z" fill="white"/>
<path d="M93.3767 19.3522H94.9523V20.7216H94.9905C95.0972 20.2939 95.3478 19.9159 95.6997 19.6512C96.0525 19.3865 96.4853 19.2511 96.9261 19.268C97.1162 19.2673 97.3055 19.288 97.4913 19.3296V20.8744C97.2513 20.801 97.0007 20.7672 96.7492 20.7746C96.5093 20.7648 96.2702 20.8071 96.0481 20.8985C95.8268 20.99 95.6268 21.1284 95.4633 21.3042C95.2998 21.4801 95.1763 21.6893 95.1016 21.9174C95.0261 22.1454 95.0012 22.3871 95.0288 22.6257V27.3979H93.3767V19.3522Z" fill="white"/>
<path d="M105.106 25.0347C104.884 26.4953 103.461 27.4976 101.641 27.4976C99.3006 27.4976 97.8485 25.9294 97.8485 23.4136C97.8485 20.8899 99.3086 19.2532 101.572 19.2532C103.798 19.2532 105.198 20.7823 105.198 23.2218V23.7876H99.5157V23.8874C99.489 24.1835 99.5263 24.4819 99.6241 24.7625C99.7218 25.0431 99.8782 25.2998 100.084 25.5154C100.288 25.7309 100.536 25.9004 100.811 26.0127C101.087 26.1249 101.383 26.1773 101.68 26.1663C102.07 26.2029 102.462 26.1126 102.797 25.9086C103.132 25.7048 103.391 25.3983 103.538 25.0347H105.106ZM99.5228 22.6334H103.546C103.561 22.3672 103.52 22.1007 103.427 21.8508C103.334 21.6009 103.19 21.3729 103.005 21.1811C102.82 20.9895 102.597 20.838 102.351 20.7365C102.103 20.6351 101.839 20.5856 101.572 20.5913C101.304 20.5897 101.037 20.6415 100.787 20.7434C100.539 20.8453 100.313 20.9956 100.123 21.1854C99.9316 21.3753 99.7805 21.601 99.6783 21.8495C99.5752 22.098 99.5228 22.3644 99.5228 22.6334Z" fill="white"/>
<path d="M41.5144 8.05582C41.8606 8.03097 42.2081 8.08328 42.5316 8.20898C42.8552 8.33466 43.1468 8.5306 43.3855 8.78264C43.6242 9.03469 43.804 9.33658 43.9119 9.66655C44.0198 9.99642 44.0531 10.3462 44.0094 10.6906C44.0094 12.3846 43.0939 13.3584 41.5144 13.3584H39.599V8.05582H41.5144ZM40.4226 12.6085H41.4224C41.6698 12.6232 41.9174 12.5827 42.1471 12.4898C42.3769 12.3968 42.583 12.2537 42.7505 12.071C42.918 11.8884 43.0427 11.6707 43.1155 11.4338C43.1882 11.1968 43.2072 10.9466 43.1711 10.7014C43.2046 10.4572 43.1836 10.2085 43.1098 9.97332C43.0359 9.73818 42.911 9.52223 42.7438 9.34094C42.5767 9.15974 42.3716 9.01772 42.1431 8.92509C41.9146 8.83245 41.6685 8.7915 41.4224 8.80516H40.4226V12.6085Z" fill="white"/>
<path d="M44.9397 11.3558C44.9146 11.0929 44.9447 10.8275 45.0281 10.5768C45.1115 10.3262 45.2463 10.0957 45.4241 9.90019C45.6017 9.70477 45.8183 9.54854 46.0599 9.44164C46.3014 9.33473 46.5627 9.27954 46.8269 9.27954C47.091 9.27954 47.3523 9.33473 47.5939 9.44164C47.8355 9.54854 48.052 9.70477 48.2298 9.90019C48.4074 10.0957 48.5423 10.3262 48.6257 10.5768C48.7091 10.8275 48.7392 11.0929 48.714 11.3558C48.7397 11.6191 48.7099 11.8848 48.6267 12.1358C48.5436 12.3869 48.4088 12.6178 48.2311 12.8137C48.0534 13.0096 47.8366 13.1661 47.5948 13.2732C47.3529 13.3803 47.0914 13.4357 46.8269 13.4357C46.5624 13.4357 46.3008 13.3803 46.059 13.2732C45.8172 13.1661 45.6005 13.0096 45.4227 12.8137C45.245 12.6178 45.1102 12.3869 45.027 12.1358C44.9438 11.8848 44.9141 11.6191 44.9397 11.3558ZM47.9017 11.3558C47.9017 10.4884 47.5121 9.98115 46.8282 9.98115C46.1417 9.98115 45.7555 10.4884 45.7555 11.3558C45.7555 12.2302 46.1417 12.7335 46.8282 12.7335C47.5121 12.7335 47.9018 12.2267 47.9018 11.3558H47.9017Z" fill="white"/>
<path d="M53.731 13.3584H52.9117L52.0847 10.4111H52.0222L51.1986 13.3584H50.3872L49.2842 9.35669H50.0851L50.802 12.4102H50.861L51.6838 9.35669H52.4414L53.2641 12.4102H53.3266L54.0399 9.35669H54.8297L53.731 13.3584Z" fill="white"/>
<path d="M55.7574 9.35688H56.5176V9.99255H56.5766C56.6768 9.76425 56.8456 9.57283 57.0597 9.44503C57.2737 9.31724 57.5223 9.25939 57.7708 9.27956C57.9655 9.26499 58.161 9.29432 58.3429 9.3655C58.5247 9.43668 58.6881 9.54785 58.8211 9.69084C58.9542 9.83374 59.0534 10.0048 59.1113 10.1913C59.1692 10.3777 59.1844 10.5748 59.1559 10.7679V13.3584H58.3661V10.9663C58.3661 10.3232 58.0867 10.0034 57.5026 10.0034C57.3705 9.99726 57.2385 10.0197 57.1158 10.0693C56.9931 10.119 56.8826 10.1945 56.7919 10.2909C56.7011 10.3872 56.6323 10.5019 56.59 10.6274C56.5477 10.7528 56.5332 10.8858 56.5471 11.0175V13.3585H55.7574V9.35688Z" fill="white"/>
<path d="M60.4142 7.79468H61.204V13.3585H60.4142V7.79468Z" fill="white"/>
<path d="M62.3018 11.3559C62.2767 11.0929 62.3068 10.8276 62.3902 10.5769C62.4736 10.3262 62.6085 10.0957 62.7862 9.90028C62.9639 9.70477 63.1805 9.54854 63.4221 9.44164C63.6637 9.33473 63.925 9.27954 64.1892 9.27954C64.4534 9.27954 64.7146 9.33473 64.9563 9.44164C65.1978 9.54854 65.4145 9.70477 65.5921 9.90028C65.7698 10.0957 65.9048 10.3262 65.9881 10.5769C66.0716 10.8276 66.1017 11.0929 66.0765 11.3559C66.1021 11.6191 66.0724 11.8849 65.9892 12.1359C65.906 12.387 65.7712 12.6179 65.5934 12.8138C65.4157 13.0097 65.1989 13.1661 64.9571 13.2732C64.7153 13.3804 64.4536 13.4357 64.1892 13.4357C63.9247 13.4357 63.6631 13.3804 63.4213 13.2732C63.1795 13.1661 62.9627 13.0097 62.7849 12.8138C62.6072 12.6179 62.4723 12.387 62.3892 12.1359C62.306 11.8849 62.2762 11.6191 62.3018 11.3559ZM65.2637 11.3559C65.2637 10.4885 64.8741 9.98124 64.1902 9.98124C63.5038 9.98124 63.1176 10.4885 63.1176 11.3559C63.1176 12.2303 63.5038 12.7336 64.1902 12.7336C64.8742 12.7336 65.2637 12.2268 65.2637 11.3559Z" fill="white"/>
<path d="M66.9079 12.2267C66.9079 11.5065 67.4442 11.0912 68.3962 11.0322L69.4802 10.9697V10.6243C69.4802 10.2016 69.2007 9.96302 68.661 9.96302C68.2201 9.96302 67.9146 10.1248 67.8269 10.4077H67.0623C67.1431 9.72041 67.7896 9.27954 68.6974 9.27954C69.7006 9.27954 70.2664 9.77898 70.2664 10.6243V13.3585H69.5062V12.796H69.4437C69.3169 12.9977 69.1388 13.1622 68.9276 13.2726C68.7165 13.383 68.4797 13.4353 68.2418 13.4243C68.0738 13.4418 67.904 13.4239 67.7433 13.3717C67.5827 13.3195 67.4348 13.2343 67.3091 13.1214C67.1834 13.0087 67.0828 12.8708 67.0137 12.7167C66.9446 12.5625 66.9086 12.3957 66.9079 12.2267ZM69.4802 11.8848V11.5503L68.5029 11.6127C67.9519 11.6496 67.702 11.837 67.702 12.1899C67.702 12.55 68.0144 12.7596 68.444 12.7596C68.5699 12.7723 68.697 12.7596 68.8179 12.7223C68.9387 12.6848 69.0509 12.6234 69.1475 12.5419C69.2442 12.4603 69.3235 12.36 69.3806 12.2472C69.4377 12.1342 69.4716 12.0111 69.4802 11.8848Z" fill="white"/>
<path d="M71.3044 11.3559C71.3044 10.0914 71.9544 9.29039 72.9654 9.29039C73.2155 9.27893 73.4637 9.33883 73.6811 9.46315C73.8984 9.58748 74.0757 9.77108 74.1926 9.99244H74.2516V7.79468H75.0414V13.3585H74.2846V12.7262H74.2221C74.0963 12.9461 73.9127 13.1274 73.6911 13.2505C73.4697 13.3736 73.2187 13.4337 72.9654 13.4244C71.9475 13.4244 71.3044 12.6234 71.3044 11.3559ZM72.1202 11.3559C72.1202 12.2046 72.5203 12.7153 73.1894 12.7153C73.855 12.7153 74.2664 12.1972 74.2664 11.3594C74.2664 10.5254 73.8507 9.99991 73.1894 9.99991C72.5246 9.99991 72.1202 10.5141 72.1202 11.3559Z" fill="white"/>
<path d="M78.3088 11.3558C78.2836 11.0929 78.3137 10.8275 78.3971 10.5768C78.4805 10.3262 78.6153 10.0957 78.793 9.90019C78.9707 9.70477 79.1873 9.54854 79.4289 9.44164C79.6704 9.33473 79.9317 9.27954 80.1959 9.27954C80.4601 9.27954 80.7213 9.33473 80.9629 9.44164C81.2046 9.54854 81.4211 9.70477 81.5988 9.90019C81.7764 10.0957 81.9113 10.3262 81.9947 10.5768C82.0781 10.8275 82.1082 11.0929 82.083 11.3558C82.1087 11.6191 82.0789 11.8848 81.9957 12.1358C81.9126 12.3869 81.7778 12.6178 81.6001 12.8137C81.4224 13.0096 81.2056 13.1661 80.9638 13.2732C80.7219 13.3803 80.4604 13.4357 80.1959 13.4357C79.9314 13.4357 79.6698 13.3803 79.428 13.2732C79.1862 13.1661 78.9695 13.0096 78.7917 12.8137C78.614 12.6178 78.4792 12.3869 78.396 12.1358C78.3129 11.8848 78.2831 11.6191 78.3088 11.3558ZM81.2708 11.3558C81.2708 10.4884 80.8811 9.98115 80.1972 9.98115C79.5107 9.98115 79.1246 10.4884 79.1246 11.3558C79.1246 12.2302 79.5107 12.7335 80.1972 12.7335C80.8811 12.7335 81.2708 12.2267 81.2708 11.3558Z" fill="white"/>
<path d="M83.1427 9.35688H83.9028V9.99255H83.9619C84.062 9.76425 84.2308 9.57283 84.4449 9.44503C84.659 9.31724 84.9076 9.25939 85.156 9.27956C85.3508 9.26499 85.5463 9.29432 85.7281 9.3655C85.9099 9.43668 86.0734 9.54785 86.2064 9.69084C86.3394 9.83374 86.4386 10.0048 86.4965 10.1913C86.5545 10.3777 86.5697 10.5748 86.5411 10.7679V13.3584H85.7514V10.9663C85.7514 10.3232 85.472 10.0034 84.8879 10.0034C84.7557 9.99726 84.6237 10.0197 84.501 10.0693C84.3784 10.119 84.2678 10.1945 84.1771 10.2909C84.0864 10.3872 84.0175 10.5019 83.9753 10.6274C83.933 10.7528 83.9184 10.8858 83.9323 11.0175V13.3585H83.1427V9.35688Z" fill="white"/>
<path d="M91.004 8.36035V9.37483H91.8704V10.0401H91.004V12.0977C91.004 12.5169 91.1764 12.7004 91.5692 12.7004C91.6705 12.7002 91.7709 12.694 91.8704 12.6822V13.34C91.7291 13.3654 91.5852 13.3789 91.4412 13.3803C90.5623 13.3803 90.213 13.0714 90.213 12.2999V10.04H89.5777V9.37483H90.213V8.36035H91.004Z" fill="white"/>
<path d="M92.9492 7.79468H93.7322V9.99991H93.7944C93.8992 9.76939 94.0734 9.5769 94.2911 9.44866C94.5098 9.32043 94.7621 9.26258 95.0145 9.28302C95.2083 9.27253 95.402 9.30488 95.5815 9.37775C95.7619 9.45062 95.9227 9.56233 96.0543 9.70478C96.1867 9.84732 96.2844 10.0171 96.3431 10.2021C96.4017 10.387 96.4186 10.5826 96.3929 10.7748V13.3585H95.6019V10.9697C95.6019 10.3305 95.3042 10.0068 94.747 10.0068C94.6111 9.99564 94.4742 10.0143 94.3462 10.0615C94.2192 10.1086 94.1027 10.1832 94.0068 10.2798C93.9108 10.3763 93.837 10.4929 93.7908 10.6209C93.7446 10.749 93.7268 10.8856 93.7393 11.0213V13.3584H92.9492V7.79468Z" fill="white"/>
<path d="M100.998 12.278C100.89 12.6437 100.658 12.96 100.341 13.1717C100.024 13.3833 99.6427 13.4768 99.2641 13.4357C99.0002 13.4427 98.738 13.3921 98.4963 13.2877C98.2537 13.1833 98.0369 13.0274 97.8609 12.8308C97.6859 12.6343 97.5543 12.4019 97.477 12.1497C97.4006 11.8975 97.3793 11.6315 97.4148 11.3702C97.3802 11.1081 97.4015 10.8416 97.4788 10.5886C97.5552 10.3357 97.6859 10.1022 97.8609 9.9039C98.036 9.70564 98.2511 9.54737 98.4928 9.43966C98.7345 9.33195 98.9958 9.2773 99.2606 9.27961C100.374 9.27961 101.045 10.0403 101.045 11.2969V11.5725H98.22V11.6167C98.2075 11.7635 98.2262 11.9114 98.2742 12.0507C98.3221 12.19 98.3986 12.3177 98.499 12.4256C98.5994 12.5336 98.7212 12.6193 98.8562 12.6774C98.9922 12.7356 99.1379 12.7647 99.2855 12.7631C99.4748 12.7858 99.6658 12.7517 99.8356 12.6654C100.004 12.579 100.145 12.4442 100.237 12.278H100.998ZM98.22 10.9883H100.241C100.251 10.8541 100.233 10.7192 100.187 10.5924C100.142 10.4655 100.071 10.3496 99.9777 10.2519C99.8853 10.1543 99.7734 10.0772 99.6489 10.0255C99.5245 9.97375 99.3903 9.94869 99.2561 9.95171C99.1193 9.95003 98.9833 9.97571 98.8571 10.0272C98.7309 10.0787 98.6154 10.155 98.5194 10.2516C98.4226 10.3482 98.3461 10.4631 98.2946 10.5897C98.2439 10.7162 98.2182 10.8518 98.22 10.9883Z" fill="white"/>
</g>
<defs>
<clipPath id="clip0_173_735">
<rect width="119.971" height="35.5469" fill="white" transform="translate(0.764648 0.296875)"/>
</clipPath>
</defs>
</svg>
