<svg width="160" height="111" viewBox="0 0 160 111" fill="none" xmlns="http://www.w3.org/2000/svg">
<path d="M4.22483 8.51603C3.46679 8.11916 2.80685 7.56041 2.29252 6.88001C1.78044 6.19117 1.51528 5.35211 1.53925 4.49641C1.52412 3.62997 1.80931 2.78467 2.34711 2.10197C2.94115 1.39486 3.71334 0.856538 4.5851 0.541797C5.63405 0.163284 6.74426 -0.0203523 7.86021 6.9084e-05C8.90851 -0.0120763 9.9484 0.186959 10.917 0.585135C11.7964 0.933915 12.5549 1.52861 13.1004 2.29699C13.6326 3.0834 13.9037 4.01536 13.8755 4.96229H9.74885C9.75991 4.72426 9.71878 4.48667 9.62831 4.26595C9.53784 4.04522 9.40018 3.84661 9.22484 3.68382C8.7912 3.35653 8.24996 3.20196 7.70737 3.25044C7.3353 3.24655 6.96554 3.30893 6.61566 3.43462C6.33929 3.5369 6.09204 3.70421 5.89514 3.92218C5.73863 4.10723 5.6535 4.34148 5.65497 4.58309C5.66844 4.80088 5.74032 5.01113 5.86316 5.1921C5.986 5.37306 6.15534 5.51816 6.35366 5.61237C7.04634 5.98727 7.77857 6.28521 8.53706 6.5008C10.0148 6.92686 11.3818 7.66619 12.5436 8.66771C12.9918 9.08079 13.3448 9.58507 13.5784 10.1461C13.8121 10.707 13.9208 11.3115 13.8973 11.9181C13.8829 12.7613 13.6043 13.5793 13.1004 14.2583C12.5739 14.9645 11.8483 15.4999 11.0152 15.7968C10.0061 16.1673 8.93602 16.3474 7.86021 16.3277C6.74169 16.3326 5.63171 16.1343 4.5851 15.7427C3.58959 15.3819 2.7185 14.7467 2.07418 13.9116C1.4118 13.0225 1.06616 11.9401 1.09165 10.8346H5.18553C5.16878 11.301 5.26225 11.7648 5.45846 12.1889C5.65341 12.5262 5.96303 12.7836 6.33182 12.9149C6.81869 13.0674 7.32808 13.137 7.83837 13.1207C8.34009 13.164 8.84148 13.0339 9.25759 12.7523C9.40017 12.6441 9.51571 12.5047 9.59523 12.345C9.67475 12.1853 9.71611 12.0096 9.7161 11.8314C9.72858 11.5531 9.6563 11.2775 9.50868 11.0405C9.31222 10.7627 9.04465 10.5421 8.73357 10.4012C8.18572 10.1365 7.61593 9.91898 7.03051 9.75117C6.06006 9.42329 5.12109 9.00992 4.22483 8.51603Z" fill="white"/>
<path d="M23.8428 3.5105V6.38166H29.7926V9.54535H23.8428V12.7957H30.8953V16.0461H19.738V0.216797H30.9389V3.46716L23.8428 3.5105Z" fill="white"/>
<path d="M41.8556 3.5105V6.38166H47.8054V9.54535H41.8556V12.7957H48.908V16.0461H37.7617V0.216797H48.9517V3.46716L41.8556 3.5105Z" fill="white"/>
<path d="M74.2352 0.216797H78.602L73.5038 10.4663V16.1003H69.3225V10.4663L64.2134 0.216797H68.5802L71.3749 6.82587L74.2352 0.216797Z" fill="white"/>
<path d="M95.0871 12.6332C94.5369 13.7638 93.6686 14.7121 92.5871 15.3635C91.4777 16.0152 90.208 16.3489 88.919 16.3278C87.6197 16.3488 86.3395 16.0152 85.2181 15.3635C84.1366 14.7121 83.2683 13.7638 82.7181 12.6332C82.1136 11.3232 81.8258 9.89108 81.8775 8.4511V7.87686C81.8429 6.43607 82.1495 5.00732 82.7727 3.70556C83.3064 2.57821 84.1552 1.62675 85.2181 0.964416C86.3378 0.332806 87.6037 0.000732422 88.8917 0.000732422C90.1797 0.000732422 91.4455 0.332806 92.5653 0.964416C93.6525 1.62029 94.5276 2.57152 95.0871 3.70556C95.714 5.00642 96.0244 6.4352 95.9932 7.87686V8.4511C96.0245 9.89625 95.7141 11.3286 95.0871 12.6332ZM91.0478 4.48565C90.8234 4.11464 90.5018 3.81093 90.1174 3.6068C89.7329 3.40266 89.2999 3.30575 88.8644 3.32635C86.943 3.32635 85.9714 4.83235 85.9714 7.85519V8.4511C85.9033 9.62276 86.156 10.7909 86.7028 11.8315C86.9258 12.2045 87.2468 12.5104 87.6313 12.7165C88.0159 12.9226 88.4496 13.0211 88.8862 13.0016C89.3245 13.0237 89.7604 12.9251 90.1457 12.7166C90.531 12.5082 90.8508 12.1981 91.0696 11.8206C91.6183 10.7843 91.8748 9.62013 91.812 8.4511V7.85519C91.8805 6.68313 91.6158 5.51553 91.0478 4.48565Z" fill="white"/>
<path d="M114.629 10.488C114.663 11.5913 114.399 12.6836 113.865 13.6516C113.361 14.5232 112.598 15.2193 111.681 15.6452C110.617 16.0955 109.471 16.3276 108.314 16.3276C107.156 16.3276 106.011 16.0955 104.946 15.6452C103.982 15.2298 103.17 14.53 102.62 13.6408C102.067 12.683 101.791 11.5918 101.823 10.488V0.216797H105.95V10.488C105.888 11.1855 106.091 11.8807 106.518 12.4382C106.746 12.6503 107.016 12.8129 107.311 12.9155C107.607 13.0181 107.92 13.0585 108.232 13.0341C108.54 13.0595 108.851 13.0195 109.142 12.9167C109.434 12.814 109.7 12.6509 109.924 12.4382C110.342 11.8769 110.54 11.1836 110.481 10.488V0.216797H114.629V10.488Z" fill="white"/>
<path d="M138.264 13.4783H133.122L132.304 16.1003H127.937L133.734 0.216797H137.631L143.504 16.1003H139.138L138.264 13.4783ZM137.249 10.2279L135.688 5.20069L134.138 10.1846L137.249 10.2279Z" fill="white"/>
<path d="M158.941 3.5105H154.17V16.1003H150.054V3.5105H145.404V0.216797H158.941V3.5105Z" fill="white"/>
<path d="M80.0763 27.444L0.196385 47.2062C0.130153 47.224 0.0736085 47.2669 0.0389047 47.3257C0.004201 47.3844 -0.005892 47.4543 0.010795 47.5204L10.9169 94.4448C10.9294 94.4929 10.954 94.5369 10.9883 94.573C11.0227 94.609 11.0658 94.6357 11.1134 94.6507L80.3492 111H80.4693L149.017 94.109C149.065 94.094 149.108 94.0672 149.142 94.0312C149.177 93.9952 149.201 93.9511 149.214 93.9031L159.989 47.3145C160.002 47.2472 159.99 47.1773 159.953 47.119C159.917 47.0606 159.859 47.0182 159.792 47.0003L80.2073 27.444H80.0763ZM144.596 89.4393L80.1855 104.683H80.0654L15.6549 89.5801C15.6042 89.569 15.5577 89.5437 15.521 89.5072C15.4842 89.4707 15.4587 89.4246 15.4475 89.3743L7.22695 50.9224C7.21647 50.8567 7.2307 50.7895 7.26694 50.7336C7.30318 50.6776 7.35889 50.6369 7.42346 50.6191L80.12 33.2838C80.1592 33.2727 80.2008 33.2727 80.2401 33.2838L152.849 50.6191C152.916 50.637 152.973 50.6794 153.01 50.7377C153.046 50.796 153.059 50.8659 153.046 50.9333L144.792 89.3092C144.772 89.3447 144.744 89.3749 144.71 89.3975C144.676 89.4201 144.637 89.4344 144.596 89.4393Z" fill="white"/>
<path d="M25.3786 82L23 56.3328L32.138 55.2617C33.817 55.0649 35.2434 55.1807 36.4171 55.609C37.5908 56.0373 38.506 56.7155 39.1627 57.6436C39.8187 58.5633 40.2063 59.6665 40.3256 60.9532C40.4185 61.9558 40.3219 62.8582 40.0357 63.6603C39.7488 64.4541 39.3158 65.1299 38.7366 65.6876C38.1641 66.2361 37.4897 66.6572 36.7134 66.9509L36.7366 67.2016C37.6097 67.1415 38.4488 67.3219 39.2538 67.7427C40.0662 68.1627 40.7528 68.8044 41.3134 69.6677C41.8733 70.5227 42.2117 71.581 42.3286 72.8426C42.4548 74.2045 42.2666 75.4555 41.7639 76.5955C41.2679 77.7263 40.4653 78.6691 39.3563 79.4241C38.2472 80.1791 36.8382 80.6568 35.1295 80.8571L25.3786 82ZM29.7928 76.9978L33.7266 76.5367C35.0713 76.3791 36.0252 75.9759 36.5884 75.3271C37.1508 74.67 37.3871 73.8568 37.2973 72.8876C37.2315 72.1774 37.0211 71.5686 36.6662 71.0612C36.3113 70.5538 35.8372 70.1787 35.2439 69.9357C34.6581 69.6919 33.9788 69.6152 33.2062 69.7058L29.1609 70.1799L29.7928 76.9978ZM28.8206 66.5078L32.3978 66.0885C33.059 66.011 33.634 65.8127 34.1226 65.4936C34.6178 65.1653 34.9916 64.7414 35.2439 64.222C35.5036 63.7017 35.602 63.1032 35.5393 62.4264C35.4534 61.499 35.0906 60.7856 34.4511 60.2862C33.8189 59.786 32.968 59.5985 31.8981 59.7239L28.2318 60.1537L28.8206 66.5078Z" fill="white"/>
<path d="M50.4414 79.4013L49.3831 60.0832L54.147 59.7531L55.2054 79.0711L50.4414 79.4013ZM51.6398 57.4272C50.9315 57.4763 50.3095 57.2542 49.7735 56.7612C49.2446 56.2592 48.9597 55.635 48.9189 54.8888C48.8784 54.151 49.0935 53.5006 49.5641 52.9378C50.0416 52.366 50.6346 52.0556 51.3428 52.0066C52.0511 51.9575 52.6697 52.1839 53.1986 52.6859C53.7345 53.179 54.0226 53.7945 54.0631 54.5323C54.1039 55.2786 53.8856 55.9376 53.408 56.5093C52.9375 57.0721 52.3481 57.3781 51.6398 57.4272Z" fill="white"/>
<path d="M77.4665 64.3851L73.1039 64.7961C73.021 64.378 72.853 64.0041 72.5999 63.6743C72.3467 63.3361 72.0165 63.0712 71.6093 62.8797C71.2094 62.6796 70.7331 62.5864 70.1805 62.6001C69.4412 62.6185 68.8211 62.8104 68.3203 63.1758C67.8192 63.5327 67.5744 64.001 67.5858 64.5805C67.5949 65.0424 67.7669 65.4288 68.1017 65.7398C68.4366 66.0507 69.0054 66.2929 69.8083 66.4662L72.9362 67.0942C74.6165 67.4389 75.8758 68.0293 76.7141 68.8655C77.5524 69.7017 77.9853 70.8169 78.0127 72.211C78.0376 73.4792 77.7272 74.6003 77.0814 75.5742C76.4431 76.548 75.5542 77.3179 74.4148 77.884C73.2826 78.4415 71.9698 78.7389 70.4762 78.776C68.1986 78.8327 66.3735 78.3445 65.0008 77.3116C63.6355 76.27 62.8189 74.8283 62.5511 72.9864L67.2391 72.5925C67.3963 73.37 67.7516 73.9577 68.3048 74.3557C68.8579 74.7453 69.5601 74.9295 70.4114 74.9083C71.2477 74.8875 71.9163 74.6902 72.417 74.3164C72.925 73.9341 73.177 73.4531 73.1731 72.8734C73.156 72.3865 72.9652 71.9921 72.6007 71.6903C72.236 71.3801 71.6786 71.1502 70.9285 71.0009L67.9358 70.4073C66.2481 70.0712 64.9844 69.4472 64.1446 68.5354C63.3123 67.6234 62.8819 66.4452 62.8535 65.0007C62.8291 63.7577 63.1067 62.6795 63.6865 61.766C64.2737 60.8523 65.1076 60.1384 66.1883 59.6241C67.2765 59.1097 68.5561 58.8342 70.0273 58.7976C72.2004 58.7436 73.9206 59.2175 75.188 60.2195C76.4629 61.2213 77.2224 62.6098 77.4665 64.3851Z" fill="white"/>
<path d="M95.5642 59.1481L95.4884 63.1794L85.1268 62.9328L85.2026 58.9015L95.5642 59.1481ZM87.6422 54.3215L92.4141 54.435L92.0748 72.4752C92.0654 72.9707 92.1254 73.3586 92.2546 73.639C92.3839 73.9109 92.5671 74.1043 92.804 74.2192C93.0484 74.3343 93.3311 74.3956 93.6523 74.4032C93.8763 74.4086 94.1007 74.3929 94.3255 74.3562C94.5505 74.3112 94.723 74.2775 94.843 74.2551L95.5183 78.2665C95.2778 78.3448 94.9399 78.4334 94.5047 78.5323C94.0694 78.6395 93.5416 78.6984 92.9213 78.7089C91.7703 78.7319 90.7654 78.5357 89.9065 78.1204C89.0551 77.7052 88.3983 77.0762 87.936 76.2334C87.4737 75.3905 87.2582 74.3351 87.2895 73.0671L87.6422 54.3215Z" fill="white"/>
<path d="M102.555 78.8341L103.564 59.5127L108.183 59.8178L108.007 63.1889L108.186 63.2008C108.562 62.0222 109.135 61.1513 109.905 60.5878C110.676 60.016 111.542 59.7619 112.504 59.8254C112.742 59.8412 112.999 59.8749 113.273 59.9267C113.547 59.9785 113.787 60.0406 113.993 60.1131L113.744 64.8679C113.525 64.7777 113.219 64.6902 112.827 64.6054C112.434 64.5206 112.074 64.4673 111.746 64.4457C111.045 64.3994 110.41 64.5299 109.84 64.8373C109.278 65.1368 108.821 65.5779 108.469 66.1605C108.125 66.7436 107.932 67.4293 107.89 68.2176L107.32 79.1488L102.555 78.8341Z" fill="white"/>
<path d="M127.577 81.3864C125.846 81.1817 124.388 80.5911 123.202 79.6146C122.025 78.6306 121.164 77.3547 120.62 75.7867C120.076 74.2105 119.897 72.4365 120.081 70.4649C120.267 68.4765 120.771 66.7792 121.594 65.373C122.417 63.9584 123.495 62.9119 124.828 62.2333C126.169 61.5473 127.705 61.3066 129.436 61.5114C131.167 61.7162 132.621 62.3105 133.798 63.2945C134.983 64.271 135.848 65.5473 136.391 67.1236C136.936 68.6916 137.115 70.4697 136.929 72.458C136.745 74.4297 136.241 76.1228 135.417 77.5374C134.595 78.9436 133.513 79.9897 132.172 80.6757C130.839 81.3543 129.308 81.5912 127.577 81.3864ZM127.986 77.2537C128.773 77.3468 129.454 77.174 130.028 76.7351C130.604 76.2879 131.066 75.6415 131.415 74.7959C131.772 73.9512 132.003 72.9691 132.108 71.8496C132.212 70.7302 132.168 69.7156 131.976 68.8058C131.79 67.897 131.458 67.1566 130.978 66.5845C130.498 66.0125 129.865 65.6799 129.077 65.5868C128.282 65.4928 127.59 65.6685 127 66.1139C126.417 66.5603 125.948 67.2058 125.591 68.0505C125.241 68.8961 125.014 69.8786 124.909 70.9981C124.805 72.1176 124.845 73.1317 125.03 74.0406C125.223 74.9503 125.563 75.6916 126.05 76.2645C126.546 76.8299 127.191 77.1596 127.986 77.2537Z" fill="white"/>
</svg>
