<svg width="120" height="36" viewBox="0 0 120 36" fill="none" xmlns="http://www.w3.org/2000/svg">
<g clip-path="url(#clip0_173_715)">
<path d="M115.542 0.296875H4.45801C2.00401 0.296875 0.0146484 2.28624 0.0146484 4.74023V31.4004C0.0146484 33.8544 2.00401 35.8438 4.45801 35.8438H115.542C117.996 35.8438 119.985 33.8544 119.985 31.4004V4.74023C119.985 2.28624 117.996 0.296875 115.542 0.296875Z" fill="black"/>
<path d="M115.542 1.00763C116.532 1.00878 117.48 1.40241 118.18 2.10217C118.88 2.80193 119.274 3.75066 119.274 4.74023V31.4004C119.274 32.3899 118.88 33.3387 118.18 34.0384C117.48 34.7382 116.532 35.1318 115.542 35.133H4.45801C3.46843 35.1318 2.51971 34.7382 1.81999 34.0385C1.12026 33.3387 0.72668 32.3899 0.725586 31.4004V4.74023C0.726663 3.75064 1.12024 2.8019 1.81997 2.10214C2.51969 1.40238 3.46842 1.00876 4.45801 1.00763H115.542ZM115.542 0.296875H4.45801C3.28062 0.300321 2.15243 0.769567 1.31989 1.60211C0.48734 2.43466 0.0180948 3.56284 0.0146484 4.74023V31.4004C0.0180948 32.5778 0.48734 33.706 1.31989 34.5385C2.15243 35.3711 3.28062 35.8403 4.45801 35.8438H115.542C116.719 35.8403 117.847 35.3711 118.68 34.5385C119.513 33.706 119.982 32.5778 119.985 31.4004V4.74023C119.982 3.56284 119.513 2.43466 118.68 1.60211C117.847 0.769567 116.719 0.300321 115.542 0.296875Z" fill="#B3B4B5"/>
<path d="M42.154 9.39975C42.1701 9.72589 42.1197 10.0519 42.0058 10.3578C41.892 10.6639 41.7171 10.9435 41.4917 11.1797C41.2392 11.4417 40.9341 11.6473 40.5966 11.7833C40.259 11.9192 39.8966 11.9823 39.533 11.9685C39.167 11.9718 38.8041 11.902 38.4656 11.763C38.127 11.624 37.8197 11.4187 37.5617 11.1593C37.3036 10.8998 37.1 10.5914 36.9628 10.2521C36.8257 9.91287 36.7577 9.54958 36.7629 9.18363C36.7577 8.81773 36.8257 8.45446 36.9629 8.11518C37.1001 7.77591 37.3037 7.46747 37.5617 7.20797C37.8198 6.94849 38.1271 6.7432 38.4656 6.60415C38.8041 6.46511 39.167 6.39512 39.533 6.3983C39.9093 6.39716 40.2817 6.47323 40.6274 6.6218C40.9484 6.75194 41.2342 6.95606 41.4614 7.21756L40.9927 7.68661C40.8141 7.47639 40.5896 7.31002 40.3365 7.20032C40.0834 7.09063 39.8085 7.04056 39.533 7.05396C39.2556 7.05252 38.9809 7.10708 38.7251 7.21435C38.4693 7.32162 38.2378 7.47941 38.0446 7.67826C37.8512 7.87711 37.7 8.11293 37.6 8.3716C37.4999 8.63028 37.4531 8.90648 37.4624 9.18363C37.4557 9.59881 37.5726 10.0066 37.798 10.3553C38.0235 10.7041 38.3474 10.9779 38.7287 11.1423C39.1101 11.3067 39.5316 11.3541 39.9399 11.2786C40.3483 11.203 40.7249 11.0079 41.0222 10.718C41.2959 10.4232 41.4544 10.04 41.4691 9.63792H39.533V8.99748H42.1166C42.1411 9.1302 42.1535 9.26485 42.154 9.39975Z" fill="white" stroke="white" stroke-width="0.177734" stroke-miterlimit="10"/>
<path d="M46.2503 7.1728H43.8221V8.86332H46.0117V9.50387H43.8221V11.1944H46.2503V11.8496H43.1374V6.51758H46.2503V7.1728Z" fill="white" stroke="white" stroke-width="0.177734" stroke-miterlimit="10"/>
<path d="M49.1392 11.8496H48.4536V7.1728H46.9643V6.51758H50.6284V7.1728H49.1392V11.8496Z" fill="white" stroke="white" stroke-width="0.177734" stroke-miterlimit="10"/>
<path d="M53.2798 11.8496V6.51758H53.9646V11.8496H53.2798Z" fill="white" stroke="white" stroke-width="0.177734" stroke-miterlimit="10"/>
<path d="M57.0037 11.8496H56.3181V7.1728H54.829V6.51758H58.493V7.1728H57.0037V11.8496Z" fill="white" stroke="white" stroke-width="0.177734" stroke-miterlimit="10"/>
<path d="M65.4291 11.1605C64.9101 11.678 64.2071 11.9685 63.4743 11.9685C62.7414 11.9685 62.0384 11.678 61.5194 11.1605C61.2627 10.9005 61.0608 10.5915 60.9259 10.2518C60.791 9.91216 60.7258 9.54887 60.734 9.18354C60.7258 8.81822 60.791 8.45493 60.9259 8.11531C61.0608 7.77569 61.2627 7.46667 61.5194 7.20662C61.7759 6.95003 62.0806 6.74655 62.4158 6.60783C62.7511 6.46911 63.1104 6.39787 63.4732 6.39819C63.836 6.39852 64.1952 6.4704 64.5303 6.60971C64.8653 6.74902 65.1695 6.95305 65.4256 7.21009C65.6825 7.46945 65.8848 7.77779 66.0202 8.11679C66.1557 8.45578 66.2218 8.81855 66.2145 9.18354C66.2226 9.54887 66.1572 9.91207 66.0223 10.2517C65.8874 10.5913 65.6856 10.9003 65.4291 11.1605ZM62.0254 10.714C62.4097 11.0977 62.9307 11.3132 63.4738 11.3132C64.017 11.3132 64.5379 11.0977 64.9223 10.714C65.1194 10.5122 65.2735 10.2726 65.3754 10.0095C65.4772 9.74643 65.5248 9.46552 65.515 9.18354C65.5248 8.90164 65.4772 8.62066 65.3754 8.35761C65.2735 8.09456 65.1194 7.85489 64.9223 7.65309C64.5379 7.26937 64.017 7.05385 63.4738 7.05385C62.9307 7.05385 62.4097 7.26937 62.0254 7.65309C61.8285 7.85505 61.6746 8.09477 61.5729 8.3578C61.4712 8.62083 61.4237 8.90172 61.4335 9.18354C61.4237 9.46543 61.4712 9.74634 61.5729 10.0093C61.6746 10.2723 61.8285 10.5121 62.0254 10.714Z" fill="white" stroke="white" stroke-width="0.177734" stroke-miterlimit="10"/>
<path d="M67.1762 11.8496V6.51758H68.0102L70.6016 10.6655H70.6311L70.6016 9.63788V6.51758H71.2872V11.8496H70.5721L67.8609 7.5008H67.8314L67.8609 8.52838V11.8496H67.1762Z" fill="white" stroke="white" stroke-width="0.177734" stroke-miterlimit="10"/>
<path d="M60.5651 19.6268C59.8182 19.6296 59.0887 19.8537 58.4691 20.2708C57.8494 20.6878 57.3672 21.279 57.0833 21.97C56.7994 22.6608 56.7267 23.4204 56.8741 24.1527C57.0215 24.8848 57.3827 25.557 57.9119 26.0842C58.441 26.6113 59.1145 26.9698 59.8473 27.1145C60.5801 27.2592 61.3393 27.1836 62.0292 26.8971C62.719 26.6105 63.3084 26.126 63.7231 25.5048C64.1377 24.8835 64.3591 24.1534 64.3591 23.4064C64.3664 22.9068 64.2732 22.4109 64.0849 21.948C63.8967 21.4852 63.6172 21.065 63.2633 20.7123C62.9093 20.3597 62.488 20.0819 62.0245 19.8954C61.5609 19.7089 61.0646 19.6176 60.5651 19.6268ZM60.5651 25.6972C60.105 25.73 59.6458 25.6235 59.2472 25.3916C58.8485 25.1598 58.529 24.8133 58.33 24.3972C58.131 23.9812 58.0619 23.5149 58.1316 23.0591C58.2014 22.6032 58.4068 22.1789 58.7211 21.8414C59.0353 21.5039 59.4439 21.2688 59.8937 21.1668C60.3435 21.0649 60.8135 21.1006 61.2426 21.2695C61.6718 21.4383 62.0401 21.7325 62.2998 22.1136C62.5594 22.4948 62.6983 22.9452 62.6983 23.4064C62.7122 23.6977 62.6677 23.989 62.5674 24.2629C62.4672 24.5367 62.3131 24.7878 62.1143 25.0013C61.9155 25.2147 61.6761 25.3862 61.41 25.5057C61.144 25.6253 60.8567 25.6903 60.5651 25.6972ZM52.2885 19.6268C51.5416 19.6296 50.8122 19.8537 50.1925 20.2707C49.5728 20.6877 49.0906 21.279 48.8067 21.9699C48.5228 22.6608 48.45 23.4203 48.5974 24.1526C48.7449 24.8848 49.106 25.5569 49.6351 26.0841C50.1643 26.6113 50.8379 26.9698 51.5707 27.1145C52.3035 27.2592 53.0627 27.1836 53.7524 26.8971C54.4423 26.6105 55.0318 26.126 55.4464 25.5049C55.8611 24.8836 56.0825 24.1534 56.0825 23.4064C56.0897 22.9068 55.9965 22.4109 55.8083 21.948C55.6201 21.4852 55.3407 21.065 54.9866 20.7123C54.6327 20.3597 54.2114 20.0819 53.7479 19.8954C53.2844 19.7089 52.7881 19.6176 52.2885 19.6268ZM52.2885 25.6972C51.8285 25.73 51.3693 25.6235 50.9706 25.3916C50.572 25.1598 50.2524 24.8133 50.0534 24.3972C49.8545 23.9812 49.7853 23.5149 49.8551 23.0591C49.9248 22.6032 50.1302 22.1789 50.4445 21.8414C50.7588 21.5039 51.1674 21.2688 51.6171 21.1668C52.0669 21.0649 52.5369 21.1006 52.9661 21.2695C53.3952 21.4383 53.7636 21.7325 54.0232 22.1136C54.2828 22.4948 54.4217 22.9452 54.4217 23.4064C54.4357 23.6977 54.3912 23.989 54.2909 24.2629C54.1906 24.5367 54.0366 24.7878 53.8378 25.0013C53.639 25.2147 53.3996 25.3862 53.1335 25.5057C52.8674 25.6253 52.5801 25.6903 52.2885 25.6972ZM42.4431 20.7865V22.39H46.2801C46.2248 23.1421 45.917 23.8534 45.4068 24.4087C45.0222 24.8006 44.5598 25.1075 44.0493 25.3098C43.5389 25.512 42.9917 25.6049 42.4431 25.5826C41.3215 25.5674 40.2511 25.1112 39.4634 24.3128C38.6757 23.5143 38.234 22.4378 38.234 21.3162C38.234 20.1945 38.6757 19.118 39.4634 18.3196C40.2511 17.5211 41.3215 17.0649 42.4431 17.0498C43.5204 17.0356 44.5597 17.4473 45.3352 18.1951L46.4662 17.0641C45.937 16.5402 45.3086 16.1272 44.6178 15.8494C43.9269 15.5716 43.1876 15.4345 42.4431 15.4463C41.6651 15.4349 40.8925 15.5783 40.1704 15.8683C39.4483 16.1582 38.791 16.5887 38.2369 17.1349C37.6826 17.6812 37.2425 18.332 36.9421 19.0499C36.6418 19.7677 36.4871 20.5381 36.4871 21.3162C36.4871 22.0943 36.6418 22.8646 36.9421 23.5825C37.2425 24.3003 37.6826 24.9512 38.2369 25.4974C38.791 26.0436 39.4483 26.4741 40.1704 26.764C40.8925 27.054 41.6651 27.1974 42.4431 27.1861C43.2033 27.2176 43.9616 27.0871 44.6675 26.8033C45.3734 26.5195 46.011 26.0887 46.5378 25.5397C47.473 24.5188 47.9715 23.1725 47.9266 21.7887C47.9302 21.4526 47.9014 21.117 47.8406 20.7865H42.4431ZM82.7073 22.032C82.4802 21.3474 82.0478 20.7493 81.4689 20.319C80.89 19.8886 80.1927 19.647 79.4717 19.6268C78.986 19.6299 78.506 19.7312 78.0607 19.9251C77.6154 20.1188 77.214 20.4009 76.8808 20.7541C76.5476 21.1074 76.2895 21.5246 76.1221 21.9805C75.9547 22.4364 75.8814 22.9214 75.9069 23.4064C75.8959 23.9033 75.9852 24.3974 76.1695 24.859C76.3538 25.3206 76.6292 25.7404 76.9793 26.0932C77.3294 26.446 77.747 26.7246 78.2073 26.9124C78.6675 27.1002 79.1608 27.1932 79.6579 27.1861C80.2805 27.1895 80.8943 27.0383 81.444 26.7459C81.9937 26.4536 82.4622 26.0293 82.8075 25.5111L81.519 24.6521C81.326 24.9726 81.0529 25.2375 80.7266 25.4207C80.4003 25.6039 80.032 25.6992 79.6579 25.6972C79.2728 25.7118 78.8922 25.6105 78.5654 25.4063C78.2386 25.2021 77.9807 24.9044 77.8252 24.5519L82.8792 22.4616L82.7073 22.032ZM77.5533 23.292C77.5354 23.0168 77.5728 22.741 77.6628 22.4804C77.7529 22.2199 77.8941 21.9799 78.0781 21.7747C78.262 21.5694 78.4851 21.4028 78.7343 21.2847C78.9833 21.1667 79.2535 21.0995 79.5289 21.0872C79.8157 21.0683 80.1016 21.1343 80.3511 21.2768C80.6006 21.4194 80.8026 21.6323 80.932 21.8889L77.5533 23.292ZM73.4443 26.957H75.105V15.8472H73.4443V26.957ZM70.724 20.4715H70.6668C70.4142 20.1972 70.1061 19.9799 69.7629 19.8342C69.4197 19.6886 69.0494 19.6179 68.6767 19.6268C67.7021 19.6682 66.7812 20.0846 66.1062 20.7889C65.4313 21.4932 65.0545 22.4309 65.0545 23.4064C65.0545 24.3819 65.4313 25.3198 66.1062 26.024C66.7812 26.7283 67.7021 27.1446 68.6767 27.1861C69.0508 27.1961 69.4227 27.1244 69.7664 26.9761C70.1101 26.8277 70.4174 26.6063 70.6668 26.3272H70.724V26.8712C70.724 28.3172 69.951 29.0903 68.7053 29.0903C68.2901 29.0803 67.8874 28.947 67.5483 28.7074C67.2092 28.4677 66.9491 28.1325 66.8013 27.7445L65.3552 28.3459C65.6278 29.0093 66.0922 29.5764 66.689 29.9743C67.2859 30.3722 67.988 30.5829 68.7053 30.5793C70.6525 30.5793 72.2989 29.4339 72.2989 26.6421V19.8558H70.724V20.4715ZM68.82 25.6972C68.2459 25.6485 67.7111 25.386 67.3213 24.9618C66.9315 24.5376 66.7152 23.9826 66.7152 23.4064C66.7152 22.8304 66.9315 22.2753 67.3213 21.8511C67.7111 21.4268 68.2459 21.1644 68.82 21.1158C69.1055 21.1298 69.3853 21.201 69.6428 21.3254C69.9002 21.4499 70.13 21.6247 70.3184 21.8399C70.5068 22.0549 70.6499 22.3058 70.7392 22.5774C70.8286 22.849 70.8624 23.1358 70.8386 23.4207C70.8609 23.7039 70.8259 23.9886 70.7356 24.258C70.6454 24.5272 70.5017 24.7756 70.3133 24.9881C70.1248 25.2007 69.8954 25.373 69.6389 25.4948C69.3822 25.6167 69.1037 25.6854 68.82 25.6972ZM90.4868 15.8474H86.5132V26.957H88.1712V22.7479H90.4868C90.956 22.7736 91.4252 22.7034 91.866 22.5417C92.3068 22.3798 92.7102 22.1299 93.0515 21.807C93.3927 21.4841 93.6638 21.095 93.8495 20.6636C94.0352 20.2321 94.1312 19.7673 94.1312 19.2977C94.1312 18.8279 94.0352 18.3631 93.8495 17.9317C93.6638 17.5002 93.3927 17.1112 93.0515 16.7882C92.7102 16.4654 92.3068 16.2154 91.866 16.0536C91.4252 15.8918 90.956 15.8216 90.4868 15.8474ZM90.5294 21.2018H88.1712V17.3936H90.5294C90.7827 17.3884 91.0351 17.4337 91.2706 17.527C91.5061 17.6204 91.7202 17.7597 91.9015 17.9371C92.0828 18.1144 92.2268 18.3261 92.3245 18.5597C92.4232 18.7933 92.4738 19.0442 92.4738 19.2977C92.4738 19.5511 92.4232 19.802 92.3245 20.0356C92.2268 20.2693 92.0828 20.4809 91.9015 20.6582C91.7202 20.8356 91.5061 20.975 91.2706 21.0683C91.0351 21.1617 90.7827 21.2071 90.5294 21.2018ZM100.778 19.6064C100.172 19.571 99.5699 19.7131 99.0447 20.0153C98.5186 20.3174 98.0929 20.7664 97.8183 21.3072L99.2908 21.9218C99.4366 21.6534 99.6579 21.4334 99.9271 21.2886C100.196 21.144 100.501 21.0809 100.806 21.1071C101.226 21.066 101.647 21.1934 101.973 21.4613C102.3 21.7292 102.507 22.1158 102.55 22.5363V22.6507C102.017 22.3678 101.423 22.2205 100.82 22.2219C99.234 22.2219 97.6184 23.0938 97.6184 24.7232C97.6344 25.0666 97.7188 25.4034 97.8663 25.7135C98.0147 26.0238 98.2235 26.3011 98.4804 26.5291C98.7381 26.757 99.0384 26.9309 99.3637 27.0406C99.6898 27.1501 100.035 27.1932 100.377 27.1672C100.794 27.1917 101.211 27.1039 101.583 26.9129C101.955 26.7219 102.269 26.4346 102.493 26.081H102.55V26.9386H104.15V22.6793C104.15 20.7069 102.678 19.6064 100.778 19.6064ZM100.578 25.695C100.034 25.695 99.2766 25.4235 99.2766 24.7517C99.2766 23.8942 100.219 23.5654 101.034 23.5654C101.564 23.5513 102.087 23.6796 102.55 23.9371C102.489 24.4189 102.255 24.8624 101.893 25.1856C101.53 25.5088 101.063 25.6897 100.578 25.695ZM109.982 19.8494L108.081 24.666H108.024L106.051 19.8494H104.265L107.223 26.5812L105.536 30.3259H107.266L111.826 19.8494H109.982ZM95.0457 26.957H96.7039V15.8474H95.0457V26.957Z" fill="white"/>
<path d="M9.28812 6.99567C8.99672 7.34409 8.84956 7.79076 8.87682 8.24417V27.8981C8.84948 28.3515 8.99664 28.7982 9.28812 29.1466L9.35388 29.2107L20.3636 18.201V17.9412L9.35388 6.93115L9.28812 6.99567Z" fill="url(#paint0_linear_173_715)"/>
<path d="M24.0333 21.8728L20.3636 18.2013V17.9416L24.0342 14.271L24.117 14.3182L28.465 16.7888C29.7071 17.4944 29.7071 18.6489 28.465 19.355L24.117 21.8256L24.0333 21.8728Z" fill="url(#paint1_linear_173_715)"/>
<path d="M24.117 21.8249L20.3637 18.0713L9.28821 29.1467C9.5413 29.3699 9.86442 29.4976 10.2018 29.5075C10.539 29.5175 10.8692 29.4091 11.135 29.2013L24.117 21.8249Z" fill="url(#paint2_linear_173_715)"/>
<path d="M24.117 14.3175L11.135 6.94115C10.8692 6.73328 10.539 6.62494 10.2018 6.63491C9.86442 6.64487 9.5413 6.77251 9.28821 6.99571L20.3637 18.0713L24.117 14.3175Z" fill="url(#paint3_linear_173_715)"/>
<path opacity="0.2" d="M24.0343 21.7422L11.135 29.0713C10.8794 29.266 10.5675 29.3721 10.2463 29.3737C9.92512 29.3755 9.61204 29.2727 9.35441 29.0808L9.28821 29.147L9.35397 29.2111L9.35441 29.2107C9.61204 29.4026 9.92503 29.5055 10.2463 29.5038C10.5675 29.5021 10.8795 29.3959 11.135 29.2012L24.117 21.8248L24.0343 21.7422Z" fill="black"/>
<path opacity="0.12" d="M9.28832 29.0175C8.99692 28.6691 8.8498 28.2224 8.87705 27.769V27.8989C8.84979 28.3523 8.99692 28.7989 9.28832 29.1474L9.35452 29.0812L9.28832 29.0175Z" fill="black"/>
<path opacity="0.12" d="M28.4652 19.2244L24.0344 21.7422L24.1171 21.8248L28.4652 19.3542C28.721 19.2432 28.9423 19.0657 29.1062 18.8401C29.27 18.6145 29.3704 18.3491 29.3968 18.0715C29.3418 18.3228 29.229 18.5579 29.0673 18.758C28.9055 18.9582 28.6994 19.1179 28.4652 19.2244Z" fill="black"/>
<path opacity="0.25" d="M11.1348 7.07156L28.465 16.918C28.6994 17.0246 28.9055 17.1843 29.0673 17.3845C29.229 17.5847 29.3418 17.8199 29.3966 18.0713C29.3704 17.7937 29.2701 17.5282 29.1062 17.3024C28.9423 17.0767 28.721 16.8992 28.465 16.7882L11.1348 6.94172C9.89284 6.23603 8.87683 6.82219 8.87683 8.24478V8.37462C8.87683 6.95212 9.89284 6.36595 11.1348 7.07156Z" fill="white"/>
</g>
<defs>
<linearGradient id="paint0_linear_173_715" x1="19.3873" y1="8.03694" x2="4.47321" y2="22.951" gradientUnits="userSpaceOnUse">
<stop stop-color="#00A0FF"/>
<stop offset="0.00657" stop-color="#00A1FF"/>
<stop offset="0.2601" stop-color="#00BEFF"/>
<stop offset="0.5122" stop-color="#00D2FF"/>
<stop offset="0.7604" stop-color="#00DFFF"/>
<stop offset="1" stop-color="#00E3FF"/>
</linearGradient>
<linearGradient id="paint1_linear_173_715" x1="30.0822" y1="18.0719" x2="8.57903" y2="18.0719" gradientUnits="userSpaceOnUse">
<stop stop-color="#FFE000"/>
<stop offset="0.4087" stop-color="#FFBD00"/>
<stop offset="0.7754" stop-color="#FFA500"/>
<stop offset="1" stop-color="#FF9C00"/>
</linearGradient>
<linearGradient id="paint2_linear_173_715" x1="22.0776" y1="20.1109" x2="1.85293" y2="40.3355" gradientUnits="userSpaceOnUse">
<stop stop-color="#FF3A44"/>
<stop offset="1" stop-color="#C31162"/>
</linearGradient>
<linearGradient id="paint3_linear_173_715" x1="6.49949" y1="0.453465" x2="15.5307" y2="9.48465" gradientUnits="userSpaceOnUse">
<stop stop-color="#32A071"/>
<stop offset="0.0685" stop-color="#2DA771"/>
<stop offset="0.4762" stop-color="#15CF74"/>
<stop offset="0.8009" stop-color="#06E775"/>
<stop offset="1" stop-color="#00F076"/>
</linearGradient>
<clipPath id="clip0_173_715">
<rect width="119.971" height="35.5469" fill="white" transform="translate(0.0146484 0.296875)"/>
</clipPath>
</defs>
</svg>
