<svg width="168" height="96" viewBox="0 0 168 96" fill="none" xmlns="http://www.w3.org/2000/svg">
<path d="M0 0L167.748 1.1721V79.1721L167.378 78C164.138 78 160.91 78.3936 157.765 79.1721L95.124 94.679C88.963 96.205 82.528 96.242 76.35 94.788L9.519 79.0633C6.516 78.3568 3.442 78 0.357 78H0V0Z" fill="white"/>
<path d="M85.089 8L10.183 26.6919C10.12 26.7088 10.067 26.7496 10.034 26.8055C9.99997 26.8614 9.992 26.9278 10.007 26.9907L20.193 71.3503C20.204 71.3955 20.227 71.4369 20.259 71.4697C20.292 71.5025 20.334 71.5254 20.379 71.5358L85.264 86.9921C85.305 87.0026 85.347 87.0026 85.388 86.9921L149.706 71.0309C149.751 71.0194 149.792 70.9962 149.824 70.9635C149.857 70.9309 149.88 70.8901 149.892 70.8454L159.995 26.8155C160.008 26.7528 159.995 26.6877 159.961 26.6339C159.926 26.5801 159.872 26.5418 159.81 26.527L85.182 8H85.089ZM145.587 66.6104L85.182 81.0363H85.068L24.704 66.734C24.659 66.7236 24.618 66.7007 24.585 66.6679C24.552 66.6351 24.529 66.5938 24.519 66.5486L16.774 30.2159C16.764 30.1534 16.778 30.0895 16.812 30.0363C16.846 29.9831 16.898 29.9443 16.959 29.9274L85.182 13.5025H85.295L153.383 29.8656C153.444 29.8825 153.497 29.9212 153.531 29.9745C153.565 30.0277 153.578 30.0916 153.569 30.1541L145.824 66.4352C145.81 66.4879 145.779 66.5346 145.737 66.5682C145.694 66.6017 145.641 66.6202 145.587 66.6207V66.6104Z" fill="#FE7F2D"/>
<path d="M30.3786 60L28 34.3328L37.138 33.2617C38.817 33.0649 40.2434 33.1807 41.4171 33.609C42.5908 34.0373 43.506 34.7155 44.1627 35.6436C44.8187 36.5633 45.2063 37.6665 45.3256 38.9532C45.4185 39.9558 45.3219 40.8582 45.0357 41.6603C44.7488 42.4541 44.3158 43.1299 43.7366 43.6876C43.1641 44.2361 42.4897 44.6572 41.7134 44.9509L41.7366 45.2016C42.6097 45.1415 43.4488 45.3219 44.2538 45.7427C45.0662 46.1627 45.7528 46.8044 46.3134 47.6677C46.8733 48.5227 47.2117 49.581 47.3286 50.8426C47.4548 52.2045 47.2666 53.4555 46.7639 54.5955C46.2679 55.7263 45.4653 56.6691 44.3563 57.4241C43.2472 58.1791 41.8382 58.6568 40.1295 58.8571L30.3786 60ZM34.7928 54.9978L38.7266 54.5367C40.0713 54.3791 41.0252 53.9759 41.5884 53.3271C42.1508 52.67 42.3871 51.8568 42.2973 50.8876C42.2315 50.1774 42.0211 49.5686 41.6662 49.0612C41.3113 48.5538 40.8372 48.1787 40.2439 47.9357C39.6581 47.6919 38.9788 47.6152 38.2062 47.7058L34.1609 48.1799L34.7928 54.9978ZM33.8206 44.5078L37.3978 44.0885C38.059 44.011 38.634 43.8127 39.1226 43.4936C39.6178 43.1653 39.9916 42.7414 40.2439 42.222C40.5036 41.7017 40.602 41.1032 40.5393 40.4264C40.4534 39.499 40.0906 38.7856 39.4511 38.2862C38.8189 37.786 37.968 37.5985 36.8981 37.7239L33.2318 38.1537L33.8206 44.5078Z" fill="#FE7F2D"/>
<path d="M55.4414 57.4013L54.3831 38.0832L59.147 37.7531L60.2054 57.0711L55.4414 57.4013ZM56.6398 35.4272C55.9315 35.4763 55.3095 35.2542 54.7735 34.7612C54.2446 34.2592 53.9597 33.635 53.9189 32.8888C53.8784 32.151 54.0935 31.5006 54.5641 30.9378C55.0416 30.366 55.6346 30.0556 56.3428 30.0066C57.0511 29.9575 57.6697 30.1839 58.1986 30.6859C58.7345 31.179 59.0226 31.7945 59.0631 32.5323C59.1039 33.2786 58.8856 33.9376 58.408 34.5093C57.9375 35.0721 57.3481 35.3781 56.6398 35.4272Z" fill="#FE7F2D"/>
<path d="M82.4665 42.3851L78.1039 42.7961C78.021 42.378 77.853 42.0041 77.5999 41.6743C77.3467 41.3361 77.0165 41.0712 76.6093 40.8797C76.2094 40.6796 75.7331 40.5864 75.1805 40.6001C74.4412 40.6185 73.8211 40.8104 73.3203 41.1758C72.8192 41.5327 72.5744 42.001 72.5858 42.5805C72.5949 43.0424 72.7669 43.4288 73.1017 43.7398C73.4366 44.0507 74.0054 44.2929 74.8083 44.4662L77.9362 45.0942C79.6165 45.4389 80.8758 46.0293 81.7141 46.8655C82.5524 47.7017 82.9853 48.8169 83.0127 50.211C83.0376 51.4792 82.7272 52.6003 82.0814 53.5742C81.4431 54.548 80.5542 55.3179 79.4148 55.884C78.2826 56.4415 76.9698 56.7389 75.4762 56.776C73.1986 56.8327 71.3735 56.3445 70.0008 55.3116C68.6355 54.27 67.8189 52.8283 67.5511 50.9864L72.2391 50.5925C72.3963 51.37 72.7516 51.9577 73.3048 52.3557C73.8579 52.7453 74.5601 52.9295 75.4114 52.9083C76.2477 52.8875 76.9163 52.6902 77.417 52.3164C77.925 51.9341 78.177 51.4531 78.1731 50.8734C78.156 50.3865 77.9652 49.9921 77.6007 49.6903C77.236 49.3801 76.6786 49.1502 75.9285 49.0009L72.9358 48.4073C71.2481 48.0712 69.9844 47.4472 69.1446 46.5354C68.3123 45.6234 67.8819 44.4452 67.8535 43.0007C67.8291 41.7577 68.1067 40.6795 68.6865 39.766C69.2737 38.8523 70.1076 38.1384 71.1883 37.6241C72.2765 37.1097 73.5561 36.8342 75.0273 36.7976C77.2004 36.7436 78.9206 37.2175 80.188 38.2195C81.4629 39.2213 82.2224 40.6098 82.4665 42.3851Z" fill="#FE7F2D"/>
<path d="M100.564 37.1481L100.488 41.1794L90.1268 40.9328L90.2026 36.9015L100.564 37.1481ZM92.6422 32.3215L97.4141 32.435L97.0748 50.4752C97.0654 50.9707 97.1254 51.3586 97.2546 51.639C97.3839 51.9109 97.5671 52.1043 97.804 52.2192C98.0484 52.3343 98.3311 52.3956 98.6523 52.4032C98.8763 52.4086 99.1007 52.3929 99.3255 52.3562C99.5505 52.3112 99.723 52.2775 99.843 52.2551L100.518 56.2665C100.278 56.3448 99.9399 56.4334 99.5047 56.5323C99.0694 56.6395 98.5416 56.6984 97.9213 56.7089C96.7703 56.7319 95.7654 56.5357 94.9065 56.1204C94.0551 55.7052 93.3983 55.0762 92.936 54.2334C92.4737 53.3905 92.2582 52.3351 92.2895 51.0671L92.6422 32.3215Z" fill="#FE7F2D"/>
<path d="M107.555 56.8341L108.564 37.5127L113.183 37.8178L113.007 41.1889L113.186 41.2008C113.562 40.0222 114.135 39.1513 114.905 38.5878C115.676 38.016 116.542 37.7619 117.504 37.8254C117.742 37.8412 117.999 37.8749 118.273 37.9267C118.547 37.9785 118.787 38.0406 118.993 38.1131L118.744 42.8679C118.525 42.7777 118.219 42.6902 117.827 42.6054C117.434 42.5206 117.074 42.4673 116.746 42.4457C116.045 42.3994 115.41 42.5299 114.84 42.8373C114.278 43.1368 113.821 43.5779 113.469 44.1605C113.125 44.7436 112.932 45.4293 112.89 46.2176L112.32 57.1488L107.555 56.8341Z" fill="#FE7F2D"/>
<path d="M132.577 59.3864C130.846 59.1817 129.388 58.5911 128.202 57.6146C127.025 56.6306 126.164 55.3547 125.62 53.7867C125.076 52.2105 124.897 50.4365 125.081 48.4649C125.267 46.4765 125.771 44.7792 126.594 43.373C127.417 41.9584 128.495 40.9119 129.828 40.2333C131.169 39.5473 132.705 39.3066 134.436 39.5114C136.167 39.7162 137.621 40.3105 138.798 41.2945C139.983 42.271 140.848 43.5473 141.391 45.1236C141.936 46.6916 142.115 48.4697 141.929 50.458C141.745 52.4297 141.241 54.1228 140.417 55.5374C139.595 56.9436 138.513 57.9897 137.172 58.6757C135.839 59.3543 134.308 59.5912 132.577 59.3864ZM132.986 55.2537C133.773 55.3468 134.454 55.174 135.028 54.7351C135.604 54.2879 136.066 53.6415 136.415 52.7959C136.772 51.9512 137.003 50.9691 137.108 49.8496C137.212 48.7302 137.168 47.7156 136.976 46.8058C136.79 45.897 136.458 45.1566 135.978 44.5845C135.498 44.0125 134.865 43.6799 134.077 43.5868C133.282 43.4928 132.59 43.6685 132 44.1139C131.417 44.5603 130.948 45.2058 130.591 46.0505C130.241 46.8961 130.014 47.8786 129.909 48.9981C129.805 50.1176 129.845 51.1317 130.03 52.0406C130.223 52.9503 130.563 53.6916 131.05 54.2645C131.546 54.8299 132.191 55.1596 132.986 55.2537Z" fill="#FE7F2D"/>
</svg>
