<svg width="250" height="223" viewBox="0 0 250 223" fill="none" xmlns="http://www.w3.org/2000/svg">
<g clip-path="url(#clip0_382_3)">
<path fill-rule="evenodd" clip-rule="evenodd" d="M249.92 -30L193.196 -15.8682C193 -15.8682 193 -15.6719 193 -15.6719L200.655 17.8911C200.655 17.8911 200.655 18.0874 200.851 18.0874L249.92 29.8639L298.596 17.8911C298.596 17.8911 298.792 17.8911 298.792 17.6949L306.447 -15.6719C306.447 -15.8682 306.447 -15.8682 306.251 -15.8682L249.92 -30ZM295.652 14.3582L249.92 25.1533L204.188 14.3582C204.188 14.3582 203.992 14.3582 203.992 14.1619L198.103 -13.3166V-13.3168C198.103 -13.4148 198.103 -13.4638 198.128 -13.4884C198.152 -13.5129 198.201 -13.5129 198.3 -13.5129L249.92 -25.8782L301.344 -13.5129C301.54 -13.5129 301.54 -13.3166 301.54 -13.3166L295.652 14.3582ZM187.92 25L131.196 39.1318C131 39.1318 131 39.3281 131 39.3281L138.655 72.8911C138.655 72.8911 138.655 73.0874 138.851 73.0874L187.92 84.8639L236.596 72.8911C236.596 72.8911 236.792 72.8911 236.792 72.6949L244.447 39.3281V39.3277C244.447 39.2298 244.447 39.1808 244.422 39.1563C244.398 39.1318 244.349 39.1318 244.251 39.1318L187.92 25ZM233.652 69.3582L187.92 80.1533L142.188 69.3582C142.188 69.3582 141.991 69.3582 141.991 69.1619L136.103 41.6834C136.103 41.5852 136.103 41.5362 136.128 41.5116C136.152 41.4871 136.201 41.4871 136.299 41.4871L187.92 29.1218L239.344 41.4871C239.54 41.4871 239.54 41.6834 239.54 41.6834L233.652 69.3582ZM-56.8038 94.831L-0.080204 80.6992L56.2507 94.831C56.4469 94.831 56.4469 94.831 56.4469 95.0271V95.0272L48.7924 128.394C48.7924 128.59 48.5959 128.59 48.5959 128.59L-0.080204 140.563L-49.149 128.787C-49.3453 128.787 -49.3452 128.59 -49.3452 128.59L-57 95.0272C-57 95.0272 -57 94.831 -56.8038 94.831ZM-0.080204 135.852L45.6518 125.057L51.54 97.3825C51.54 97.3825 51.5401 97.1863 51.3438 97.1863L-0.080204 84.8209L-51.7007 97.1863C-51.7988 97.1863 -51.8479 97.1863 -51.8724 97.2108C-51.8969 97.2353 -51.8969 97.2844 -51.8969 97.3824V97.3825L-46.0086 124.861C-46.0086 125.057 -45.8124 125.057 -45.8124 125.057L-0.080204 135.852ZM193.196 94.831L249.92 80.6992L306.251 94.831C306.447 94.831 306.447 94.831 306.447 95.0272L298.792 128.394C298.792 128.59 298.596 128.59 298.596 128.59L249.92 140.563L200.851 128.787C200.655 128.787 200.655 128.59 200.655 128.59L193 95.0272C193 95.0272 193 94.831 193.196 94.831ZM249.92 135.852L295.652 125.057L301.54 97.3825C301.54 97.3825 301.54 97.1863 301.344 97.1863L249.92 84.8209L198.299 97.1863C198.201 97.1863 198.152 97.1863 198.128 97.2108C198.103 97.2353 198.103 97.2843 198.103 97.3824V97.3825L203.991 124.861C203.991 125.057 204.188 125.057 204.188 125.057L249.92 135.852ZM62.9198 136.049L6.19623 150.181C5.99995 150.181 6 150.377 6 150.377L13.6548 183.94C13.6548 183.94 13.6547 184.136 13.851 184.136L62.9198 195.913L111.596 183.94C111.596 183.94 111.792 183.94 111.792 183.744L119.447 150.377C119.447 150.181 119.447 150.181 119.251 150.181L62.9198 136.049ZM108.652 180.407L62.9198 191.202L17.1876 180.407C17.1876 180.407 16.9914 180.407 16.9914 180.211L11.1031 152.732C11.1031 152.634 11.1031 152.585 11.1276 152.56C11.1521 152.536 11.2012 152.536 11.2993 152.536L62.9198 140.171L114.344 152.536C114.54 152.536 114.54 152.732 114.54 152.732L108.652 180.407ZM187.92 136.049L131.196 150.181C131 150.181 131 150.377 131 150.377L138.655 183.94C138.655 183.94 138.655 184.136 138.851 184.136L187.92 195.913L236.596 183.94C236.596 183.94 236.792 183.94 236.792 183.744L244.447 150.377C244.447 150.181 244.447 150.181 244.251 150.181L187.92 136.049ZM233.652 180.407L187.92 191.202L142.188 180.407C142.188 180.407 141.991 180.407 141.991 180.211L136.103 152.732C136.103 152.634 136.103 152.585 136.128 152.56C136.152 152.536 136.201 152.536 136.299 152.536L187.92 140.171L239.344 152.536C239.54 152.536 239.54 152.732 239.54 152.732L233.652 180.407ZM124.92 80.6992L68.1962 94.831C68 94.831 68 95.0272 68 95.0272L75.6548 128.59C75.6548 128.59 75.6547 128.787 75.851 128.787L124.92 140.563L173.596 128.59C173.596 128.59 173.792 128.59 173.792 128.394L181.447 95.0272V95.0271C181.447 94.831 181.447 94.831 181.251 94.831L124.92 80.6992ZM170.652 125.057L124.92 135.852L79.1876 125.057C79.1876 125.057 78.9914 125.057 78.9914 124.861L73.1031 97.3825V97.3824C73.1031 97.2843 73.1031 97.2353 73.1276 97.2108C73.1521 97.1863 73.2012 97.1863 73.2993 97.1863L124.92 84.8209L176.344 97.1863C176.54 97.1863 176.54 97.3825 176.54 97.3825L170.652 125.057ZM6.19623 39.1318L62.9198 25L119.251 39.1318C119.349 39.1318 119.398 39.1318 119.422 39.1563C119.447 39.1809 119.447 39.2299 119.447 39.3279V39.3281L111.792 72.6949C111.792 72.8911 111.596 72.8911 111.596 72.8911L62.9198 84.8639L13.851 73.0874C13.6547 73.0874 13.6545 72.8911 13.6545 72.8911L6 39.3281C6 39.3281 5.99995 39.1318 6.19623 39.1318ZM62.9198 80.1533L108.652 69.3582L114.54 41.6834C114.54 41.6834 114.54 41.4871 114.344 41.4871L62.9198 29.1218L11.2993 41.4871C11.2012 41.4871 11.1521 41.4871 11.1276 41.5116C11.1031 41.5362 11.1031 41.5852 11.1031 41.6832V41.6834L16.9914 69.1619C16.9914 69.3582 17.1876 69.3582 17.1876 69.3582L62.9198 80.1533ZM68.1965 -15.8682L124.92 -30L181.251 -15.8682C181.447 -15.8682 181.447 -15.8682 181.447 -15.672V-15.6719L173.792 17.6949C173.792 17.8911 173.596 17.8911 173.596 17.8911L124.92 29.8639L75.851 18.0874C75.6547 18.0874 75.6548 17.8911 75.6548 17.8911L68 -15.6719C68 -15.6719 68.0002 -15.8682 68.1965 -15.8682ZM124.92 25.1533L170.652 14.3582L176.54 -13.3166C176.54 -13.3166 176.54 -13.5129 176.344 -13.5129L124.92 -25.8782L73.2996 -13.5129C73.2014 -13.5129 73.1524 -13.5129 73.1279 -13.4884C73.1033 -13.4638 73.1033 -13.4148 73.1033 -13.3168V-13.3166L78.9916 14.1619C78.9916 14.3582 79.1878 14.3582 79.1878 14.3582L124.92 25.1533ZM-0.0802078 -30L-56.8035 -15.8682C-56.9998 -15.8682 -57 -15.6719 -57 -15.6719L-49.3452 17.8911C-49.3452 17.8911 -49.3453 18.0874 -49.149 18.0874L-0.0802078 29.8639L48.5961 17.8911C48.5961 17.8911 48.7924 17.8911 48.7924 17.6949L56.4471 -15.6719V-15.672C56.4471 -15.8682 56.4471 -15.8682 56.2509 -15.8682L-0.0802078 -30ZM45.652 14.3582L-0.0802078 25.1533L-45.8122 14.3582C-45.8122 14.3582 -46.0084 14.3582 -46.0084 14.1619L-51.8967 -13.3166V-13.3168C-51.8967 -13.4148 -51.8967 -13.4638 -51.8721 -13.4884C-51.8476 -13.5129 -51.7986 -13.5129 -51.7004 -13.5129L-0.0802078 -25.8782L51.344 -13.5129C51.5403 -13.5129 51.5402 -13.3166 51.5402 -13.3166L45.652 14.3582ZM193.196 207.194L249.92 193.062L306.251 207.194C306.349 207.194 306.398 207.194 306.423 207.218C306.447 207.243 306.447 207.292 306.447 207.39L298.792 240.757C298.792 240.953 298.596 240.953 298.596 240.953L249.92 252.926L200.851 241.149C200.655 241.149 200.655 240.953 200.655 240.953L193 207.39C193 207.39 193 207.194 193.196 207.194ZM249.92 248.215L295.652 237.42L301.54 209.745C301.54 209.745 301.54 209.549 301.344 209.549L249.92 197.184L198.3 209.549C198.103 209.549 198.103 209.549 198.103 209.745L203.992 237.224C203.992 237.42 204.188 237.42 204.188 237.42L249.92 248.215ZM124.92 193.062L68.1965 207.194C68.0002 207.194 68 207.39 68 207.39L75.6548 240.953C75.6548 240.953 75.6547 241.149 75.851 241.149L124.92 252.926L173.596 240.953C173.596 240.953 173.792 240.953 173.792 240.757L181.447 207.39C181.447 207.292 181.447 207.243 181.423 207.218C181.398 207.194 181.349 207.194 181.251 207.194L124.92 193.062ZM170.652 237.42L124.92 248.215L79.1878 237.42C79.1878 237.42 78.9916 237.42 78.9916 237.224L73.1033 209.745C73.1033 209.549 73.1033 209.549 73.2996 209.549L124.92 197.184L176.344 209.549C176.54 209.549 176.54 209.745 176.54 209.745L170.652 237.42ZM-56.8035 207.194L-0.0802078 193.062L56.2509 207.194C56.349 207.194 56.3981 207.194 56.4226 207.218C56.4471 207.243 56.4471 207.292 56.4471 207.39L48.7924 240.757C48.7924 240.953 48.5961 240.953 48.5961 240.953L-0.0802078 252.926L-49.149 241.149C-49.3453 241.149 -49.3452 240.953 -49.3452 240.953L-57 207.39C-57 207.39 -56.9998 207.194 -56.8035 207.194ZM-0.0802078 248.215L45.652 237.42L51.5402 209.745C51.5402 209.745 51.5403 209.549 51.344 209.549L-0.0802078 197.184L-51.7004 209.549C-51.8967 209.549 -51.8967 209.549 -51.8967 209.745L-46.0084 237.224C-46.0084 237.42 -45.8122 237.42 -45.8122 237.42L-0.0802078 248.215Z" fill="#F5F3EB"/>
</g>
<defs>
<clipPath id="clip0_382_3">
<rect width="250" height="223" fill="white"/>
</clipPath>
</defs>
</svg>
