<?xml version="1.0" encoding="utf-8"?><svg viewBox="0 0 118 76" xmlns="http://www.w3.org/2000/svg" xmlns:xlink="http://www.w3.org/1999/xlink"><style>:root>svg{display:none}:root>svg:target{display:block}</style><svg viewBox="0 0 24 24" id="arrow-back" xmlns="http://www.w3.org/2000/svg"><path d="M4 13h13.86l-3.63 4.36a1.14 1.14 0 0 0-.19.34 1 1 0 0 0 .32 1.07 1 1 0 0 0 .73.23 1 1 0 0 0 .68-.36l5-6 .09-.15c0-.05.05-.08.07-.13a1 1 0 0 0 0-.72c0-.05-.05-.08-.07-.13l-.09-.15-5-6a1.13 1.13 0 0 0-.34-.27A1.07 1.07 0 0 0 15 5a1 1 0 0 0-.64.23 1.21 1.21 0 0 0-.25.3 1 1 0 0 0-.11.77 1.14 1.14 0 0 0 .19.34L17.86 11H4a1 1 0 1 0 0 2Z"/></svg><svg fill="none" viewBox="0 0 24 24" id="arrow-next-icon" xmlns="http://www.w3.org/2000/svg"><path fill-rule="evenodd" clip-rule="evenodd" d="M8.512 4.43a.75.75 0 0 1 1.057.082l6 7a.75.75 0 0 1 0 .976l-6 7a.75.75 0 0 1-1.138-.976L14.012 12 8.431 5.488a.75.75 0 0 1 .08-1.057Z" fill="#fff"/></svg><svg fill="none" viewBox="0 0 24 24" id="arrow-prev-icon" xmlns="http://www.w3.org/2000/svg"><path fill-rule="evenodd" clip-rule="evenodd" d="M15.488 4.43a.75.75 0 0 1 .081 1.058L9.988 12l5.581 6.512a.75.75 0 1 1-1.138.976l-6-7a.75.75 0 0 1 0-.976l6-7a.75.75 0 0 1 1.057-.081Z" fill="#fff"/></svg><svg fill="none" viewBox="0 0 33 33" id="auth-icon" xmlns="http://www.w3.org/2000/svg"><path d="M16.125.563c-8.822 0-16 7.177-16 16 0 8.822 7.178 16 16 16s16-7.178 16-16c0-8.823-7.178-16-16-16Zm.154 7.384a5.539 5.539 0 1 1 0 11.077 5.539 5.539 0 0 1 0-11.077Zm-.154 22.154a13.505 13.505 0 0 1-9.937-4.354c.68-3.521 6.788-4.261 9.937-4.261 3.15 0 9.257.74 9.937 4.26a13.502 13.502 0 0 1-9.937 4.355Z" fill="#FE7F2D"/></svg><svg fill="none" viewBox="0 0 17 22" id="cart-icon" xmlns="http://www.w3.org/2000/svg"><path fill-rule="evenodd" clip-rule="evenodd" d="M7.097 3.918c0-.75.445-1.204 1.778-1.204 1.334 0 1.778.455 1.778 1.204V5.44H7.097V3.918Zm8.445 1.917a.454.454 0 0 0-.454-.407h-2.657V3.906c0-1.66-.89-3.01-3.556-3.01-2.667 0-3.556 1.35-3.556 3.01v1.522H2.653a.454.454 0 0 0-.454.407L.877 20.405a.447.447 0 0 0 .117.344.459.459 0 0 0 .337.147h15.088c.128 0 .25-.053.337-.147a.446.446 0 0 0 .117-.345L15.542 5.835Z" fill="#fff"/></svg><svg fill="none" viewBox="0 0 16 8" id="chevron-down" xmlns="http://www.w3.org/2000/svg"><path d="M15 1 8 7 1 1" stroke="#1C274C" stroke-width="1.5" stroke-linecap="round" stroke-linejoin="round"/></svg><svg fill="none" viewBox="0 0 16 28" id="chevron-next-icon" xmlns="http://www.w3.org/2000/svg"><g clip-path="url(#ga)"><path d="m2 2.333 11.605 11.605L2 25.544" stroke="#CE3439" stroke-width="4" stroke-linecap="round" stroke-linejoin="round"/></g><defs><clipPath id="ga"><path fill="#fff" d="M0 0h16v28H0z"/></clipPath></defs></svg><svg fill="none" viewBox="0 0 16 28" id="chevron-prev-icon" xmlns="http://www.w3.org/2000/svg"><g clip-path="url(#ha)"><path d="M14 25.667 2.395 14.06 14 2.457" stroke="#CE3439" stroke-width="4" stroke-linecap="round" stroke-linejoin="round"/></g><defs><clipPath id="ha"><path fill="#fff" transform="rotate(-180 8 14)" d="M0 0h16v28H0z"/></clipPath></defs></svg><svg fill="none" viewBox="0 0 11 18" id="chevron-right-icon" xmlns="http://www.w3.org/2000/svg"><path d="m1.86 1.781 6.963 6.963-6.964 6.964" stroke="#fff" stroke-width="3" stroke-linecap="round" stroke-linejoin="round"/></svg><svg viewBox="0 0 12.02 11.93" id="close-icon" xmlns="http://www.w3.org/2000/svg"><path d="M1.7.29A1 1 0 0 0 .28 1.7l4.31 4.5-4.31 4a1 1 0 0 0 0 1.41 1 1 0 0 0 1.4 0l4.31-4 4.31 4a1 1 0 0 0 1.42-1.41l-4.32-4 4.32-4.5a1 1 0 0 0 0-1.41 1 1 0 0 0-1.4 0l-4.31 4.5Z" fill-rule="evenodd"/></svg><svg fill="none" viewBox="0 0 22 23" id="facebook" xmlns="http://www.w3.org/2000/svg"><g clip-path="url(#ka)"><path d="M22 11.787C22 5.68 17.07.719 11 .719S0 5.679 0 11.787c0 5.528 4.028 10.103 9.285 10.932v-7.742h-2.81v-3.202h2.81v-2.44c0-2.77 1.636-4.314 4.14-4.314 1.208 0 2.449.239 2.449.239V7.96h-1.377c-1.365 0-1.805.863-1.805 1.737v2.077h3.058l-.485 3.202h-2.561v7.742C17.972 21.89 22 17.315 22 11.787Z" fill="#fff"/></g><defs><clipPath id="ka"><path fill="#fff" transform="translate(0 .719)" d="M0 0h22v22H0z"/></clipPath></defs></svg><svg fill="none" viewBox="0 0 23 23" id="instagram" xmlns="http://www.w3.org/2000/svg"><g clip-path="url(#la)"><path fill-rule="evenodd" clip-rule="evenodd" d="M11.75 2.846c2.892 0 3.231.013 4.374.064 1.057.048 1.629.224 2.011.374.507.198.868.43 1.246.808.378.378.615.739.808 1.246.146.382.327.954.374 2.01.052 1.144.064 1.483.064 4.375s-.012 3.231-.064 4.374c-.047 1.057-.223 1.629-.374 2.011-.197.507-.43.868-.808 1.246a3.307 3.307 0 0 1-1.246.808c-.382.146-.954.327-2.01.374-1.144.052-1.483.064-4.375.064s-3.231-.012-4.374-.064c-1.057-.047-1.629-.224-2.011-.374a3.36 3.36 0 0 1-1.246-.808 3.307 3.307 0 0 1-.808-1.246c-.146-.382-.327-.954-.374-2.01-.051-1.144-.064-1.483-.064-4.375s.013-3.231.064-4.374c.047-1.057.224-1.629.374-2.011a3.36 3.36 0 0 1 .808-1.246c.378-.378.739-.615 1.246-.808.382-.146.954-.326 2.01-.374 1.144-.056 1.483-.064 4.375-.064Zm0-1.951c-2.939 0-3.309.013-4.464.064-1.152.052-1.938.237-2.626.503a5.276 5.276 0 0 0-1.916 1.25 5.37 5.37 0 0 0-1.25 1.917c-.267.688-.452 1.474-.503 2.63-.052 1.151-.065 1.52-.065 4.46 0 2.939.013 3.308.065 4.464.051 1.152.236 1.938.502 2.63a5.275 5.275 0 0 0 1.25 1.916 5.37 5.37 0 0 0 1.917 1.25c.688.267 1.474.452 2.63.504 1.156.051 1.521.064 4.464.064 2.944 0 3.309-.013 4.465-.064 1.151-.052 1.938-.237 2.63-.503a5.278 5.278 0 0 0 1.916-1.25 5.358 5.358 0 0 0 1.25-1.917c.267-.688.452-1.474.503-2.63.052-1.156.065-1.52.065-4.464 0-2.944-.013-3.309-.065-4.465-.051-1.151-.236-1.938-.503-2.63a5.27 5.27 0 0 0-1.25-1.916 5.373 5.373 0 0 0-1.916-1.25c-.688-.266-1.474-.451-2.63-.503-1.16-.047-1.53-.06-4.469-.06Zm0 5.264a5.561 5.561 0 0 0 0 11.12 5.564 5.564 0 0 0 5.56-5.56 5.564 5.564 0 0 0-5.56-5.56Zm0 9.17a3.609 3.609 0 1 1-.001-7.219 3.609 3.609 0 0 1 .001 7.218Zm7.077-9.39a1.298 1.298 0 1 1-2.596 0 1.298 1.298 0 0 1 2.596 0Z" fill="#fff"/></g><defs><clipPath id="la"><path fill="#fff" transform="translate(.75 .719)" d="M0 0h22v22H0z"/></clipPath></defs></svg><svg fill="none" viewBox="0 0 22 23" id="linkedin" xmlns="http://www.w3.org/2000/svg"><g clip-path="url(#ma)"><path d="M4.311.719A4.324 4.324 0 0 0 0 5.029v13.38c0 2.37 1.94 4.31 4.311 4.31H17.69c2.371 0 4.311-1.94 4.311-4.31V5.028C22 2.66 20.06.72 17.69.72H4.31Zm1.085 3.63c1.136 0 1.836.746 1.858 1.727 0 .96-.722 1.727-1.88 1.727h-.022c-1.115 0-1.836-.767-1.836-1.727 0-.98.743-1.727 1.88-1.727Zm9.796 4.585c2.186 0 3.825 1.429 3.825 4.5v5.732h-3.323v-5.348c0-1.344-.48-2.26-1.683-2.26-.918 0-1.465.617-1.705 1.214-.088.214-.11.512-.11.81v5.584H8.874s.044-9.06 0-9.998h3.323v1.416c.442-.681 1.231-1.65 2.995-1.65Zm-11.48.235h3.323v9.997H3.712V9.169Z" fill="#fff"/></g><defs><clipPath id="ma"><path fill="#fff" transform="translate(0 .719)" d="M0 0h22v22H0z"/></clipPath></defs></svg><svg fill="none" viewBox="0 0 10 10" id="plus" xmlns="http://www.w3.org/2000/svg"><g clip-path="url(#na)" fill="#fff"><path d="M6 1a1 1 0 0 0-2 0h2ZM4 9a1 1 0 1 0 2 0H4Zm0-8v8h2V1H4Z"/><path d="M1 4a1 1 0 0 0 0 2V4Zm8 2a1 1 0 1 0 0-2v2ZM1 6h8V4H1v2Z"/></g><defs><clipPath id="na"><path fill="#fff" d="M0 0h10v10H0z"/></clipPath></defs></svg><svg fill="none" viewBox="0 0 21 22" id="search-icon" xmlns="http://www.w3.org/2000/svg"><ellipse cx="9.767" cy="10.63" rx="8.989" ry="8.884" stroke="#000" stroke-width="1.5" stroke-linecap="round" stroke-linejoin="round"/><path d="m16.018 17.27 3.524 3.475" stroke="#000" stroke-width="1.5" stroke-linecap="round" stroke-linejoin="round"/></svg><svg fill="none" viewBox="0 0 118 76" id="sweet" xmlns="http://www.w3.org/2000/svg"><g clip-path="url(#pa)"><path d="M53.095 65.874c9.804-.54 20.21 1.352 23.243 4.229 3.032 2.876-2.457 5.647-12.261 6.189-9.804.54-20.21-1.352-23.242-4.229-3.032-2.876 2.456-5.647 12.26-6.189Z" fill="#CE3439" opacity=".2"/><path d="M49.751 16H44.05a.163.163 0 0 0-.164.163v.884c0 .09.074.163.164.163h5.338c.2 0 .363.163.363.364v34.28h1.343V16.408a.408.408 0 0 0-.408-.408h-.935Z" fill="#CE3439"/><path d="M65.5 70.475H51.672a4.859 4.859 0 0 1 4.859-4.859h4.11a4.859 4.859 0 0 1 4.859 4.859Z" fill="#0A857B"/><path d="M58.617 66.224A10.422 10.422 0 0 1 48.22 56.51l-1.636-23.996h24.232L69.01 56.58a10.422 10.422 0 0 1-10.393 9.642Z" fill="#34A593"/><path d="M68.367 32.515H48.805a4.505 4.505 0 0 1 4.505-4.505h10.552a4.505 4.505 0 0 1 4.505 4.505Z" fill="#F8D59B"/><path d="M64.118 28.01H53.054a4.505 4.505 0 0 1 4.505-4.504h2.054a4.505 4.505 0 0 1 4.505 4.505Z" fill="#F8D59B"/><path d="M60.276 23.608h-3.38c0-.811.657-1.469 1.468-1.469h.444c.81 0 1.468.658 1.468 1.469Z" fill="#F8D59B"/><path d="M64.118 28.003s-2.144.673-3.467-.693c-1.323-1.365-1.05-1.824-1.653-2.558-.764-.932-2.101-1.21-2.101-1.21s1.41-.145 2.78.065c1.629.25 1.587 1.61 2.8 3.05 1.03 1.22 1.64 1.346 1.64 1.346ZM53.054 28.01s6.203 1.148 7.692 2.12c1.92 1.252 1.882 2.385 1.882 2.385h2.688s.353-2.028-3.303-3.714c-2.304-1.063-8.959-.791-8.959-.791Z" fill="#D8B17D"/><path d="M58.52 64.3c-4.424 0-8.092-4-8.393-9.156l-1.322-22.622h19.562l-1.458 22.689c-.329 5.127-3.986 9.09-8.389 9.09Z" fill="#A56927"/><path d="M50.495 32.515s.19 19.53 1.177 23.227c.616 2.305 2.204 4.302 3.311 5.479.168.178.452-.03.333-.244-.83-1.487-2.017-3.992-2.262-6.503-.816-8.396-.755-21.959-.755-21.959h-1.804ZM61.932 55.84a.91.91 0 1 1-.256 1.802.91.91 0 0 1 .256-1.802ZM63.549 57.993a.662.662 0 1 1-.187 1.31.662.662 0 0 1 .187-1.31ZM61.935 60.023a.362.362 0 1 1-.103.717.362.362 0 0 1 .103-.717Z" fill="#D38D46"/></g><defs><clipPath id="pa"><path fill="#fff" d="M0 0h118v76H0z"/></clipPath></defs></svg><svg fill="none" viewBox="0 0 21 19" id="twitter" xmlns="http://www.w3.org/2000/svg"><g clip-path="url(#qa)"><path d="M20.5 2.848a7.58 7.58 0 0 1-2.356.716c.848-.562 1.496-1.454 1.804-2.513a7.802 7.802 0 0 1-2.607 1.104C16.592 1.27 15.527.719 14.346.719c-2.266 0-4.103 2.035-4.103 4.544 0 .356.036.704.106 1.036-3.409-.19-6.432-2-8.456-4.75a4.89 4.89 0 0 0-.554 2.285c0 1.578.724 2.97 1.824 3.783a3.804 3.804 0 0 1-1.858-.57v.057c0 2.201 1.415 4.039 3.29 4.457-.343.103-.706.16-1.08.16-.266 0-.522-.03-.773-.085.522 1.807 2.037 3.121 3.832 3.157-1.404 1.219-3.173 1.943-5.095 1.943a7.89 7.89 0 0 1-.979-.063c1.816 1.293 3.972 2.046 6.289 2.046 7.547 0 11.673-6.927 11.673-12.934l-.014-.588A8.734 8.734 0 0 0 20.5 2.848Z" fill="#fff"/></g><defs><clipPath id="qa"><path fill="#fff" transform="translate(.5 .719)" d="M0 0h20v18H0z"/></clipPath></defs></svg><svg fill="none" viewBox="0 0 23 16" id="youtube" xmlns="http://www.w3.org/2000/svg"><g clip-path="url(#ra)"><path d="M21.79 2.572a2.62 2.62 0 0 0-.703-1.19 2.78 2.78 0 0 0-1.226-.695C18.14.223 11.244.223 11.244.223a68.717 68.717 0 0 0-8.607.44 2.88 2.88 0 0 0-1.226.713c-.34.333-.585.745-.713 1.195A27.844 27.844 0 0 0 .25 7.72a27.792 27.792 0 0 0 .447 5.147c.125.449.37.858.71 1.19.34.33.764.569 1.23.695 1.743.463 8.606.463 8.606.463a68.865 68.865 0 0 0 8.617-.44 2.78 2.78 0 0 0 1.226-.695c.34-.331.58-.743.701-1.19.317-1.697.47-3.421.46-5.149a25.437 25.437 0 0 0-.459-5.169v.001ZM9.05 10.927V4.512L14.79 7.72 9.05 10.927Z" fill="#fff"/></g><defs><clipPath id="ra"><path fill="#fff" transform="translate(.25 .219)" d="M0 0h22v15H0z"/></clipPath></defs></svg></svg>