<svg width="33" height="33" viewBox="0 0 33 33" fill="none" xmlns="http://www.w3.org/2000/svg">
<path d="M16.125 0.5625C7.30269 0.5625 0.125 7.74019 0.125 16.5625C0.125 25.3848 7.30269 32.5625 16.125 32.5625C24.9473 32.5625 32.125 25.3848 32.125 16.5625C32.125 7.74019 24.9473 0.5625 16.125 0.5625ZM16.2788 7.94712C17.3743 7.94712 18.4451 8.27194 19.3559 8.88051C20.2666 9.48909 20.9765 10.3541 21.3957 11.3661C21.8149 12.3781 21.9246 13.4917 21.7109 14.5661C21.4972 15.6404 20.9697 16.6273 20.1951 17.4019C19.4206 18.1764 18.4337 18.7039 17.3593 18.9176C16.285 19.1313 15.1714 19.0216 14.1594 18.6024C13.1473 18.1833 12.2824 17.4734 11.6738 16.5626C11.0652 15.6518 10.7404 14.581 10.7404 13.4856C10.7404 12.0167 11.3239 10.608 12.3626 9.56929C13.4012 8.53063 14.81 7.94712 16.2788 7.94712ZM16.125 30.101C14.2577 30.1017 12.4105 29.7152 10.7001 28.9658C8.98972 28.2164 7.45336 27.1204 6.18808 25.7471C6.86808 22.2256 12.9758 21.4856 16.125 21.4856C19.2742 21.4856 25.3819 22.2256 26.0619 25.7463C24.7968 27.1199 23.2605 28.2161 21.5501 28.9657C19.8397 29.7152 17.9924 30.1018 16.125 30.101Z" fill="#FE7F2D"/>
</svg>
