<svg width="17" height="22" viewBox="0 0 17 22" fill="none" xmlns="http://www.w3.org/2000/svg">
<path fill-rule="evenodd" clip-rule="evenodd" d="M7.09722 3.91775C7.09722 3.16872 7.54167 2.71418 8.87533 2.71418C10.209 2.71418 10.6528 3.16872 10.6528 3.91775V5.44145H7.09722V3.91775ZM15.5417 5.83511C15.5192 5.60455 15.3228 5.42835 15.0881 5.42835H12.4306V3.90564C12.4306 2.24594 11.5417 0.895996 8.875 0.895996C6.20833 0.895996 5.31944 2.24594 5.31944 3.90564V5.42835H2.65278C2.41807 5.42835 2.2217 5.60455 2.19905 5.83511L0.876889 20.4044C0.865328 20.5305 0.907137 20.6554 0.993924 20.7493C1.08008 20.8427 1.20265 20.896 1.33062 20.896H16.4194C16.5473 20.896 16.6698 20.8427 16.7561 20.7493C16.843 20.6554 16.8847 20.5305 16.8731 20.4044L15.5417 5.83511Z" fill="white"/>
</svg>
