<svg width="22" height="23" viewBox="0 0 22 23" fill="none" xmlns="http://www.w3.org/2000/svg">
<g clip-path="url(#clip0_173_44)">
<path d="M22 11.7868C22 5.67953 17.0697 0.71875 11 0.71875C4.93026 0.71875 0 5.67953 0 11.7868C0 17.3153 4.0277 21.8901 9.28513 22.7188V14.9768H6.4759V11.7755H9.28513V9.33485C9.28513 6.56498 10.921 5.02112 13.4256 5.02112C14.6328 5.02112 15.8738 5.25951 15.8738 5.25951V7.96127H14.4974C13.1323 7.96127 12.6923 8.82401 12.6923 9.69811V11.7755H15.7497L15.2646 14.9768H12.7036V22.7188C17.9723 21.8901 22 17.3153 22 11.7868Z" fill="white"/>
</g>
<defs>
<clipPath id="clip0_173_44">
<rect width="22" height="22" fill="white" transform="translate(0 0.71875)"/>
</clipPath>
</defs>
</svg>
