<svg width="23" height="23" viewBox="0 0 23 23" fill="none" xmlns="http://www.w3.org/2000/svg">
<g clip-path="url(#clip0_173_47)">
<path fill-rule="evenodd" clip-rule="evenodd" d="M11.7501 2.8458C14.6419 2.8458 14.9813 2.85869 16.1243 2.91025C17.1813 2.95752 17.7528 3.13369 18.1353 3.28408C18.6423 3.48174 19.0032 3.71377 19.3813 4.09189C19.759 4.47002 19.996 4.83096 20.189 5.33799C20.335 5.72041 20.516 6.29189 20.563 7.34893C20.615 8.49189 20.627 8.83135 20.627 11.7232C20.627 14.615 20.615 14.9544 20.563 16.0974C20.516 17.1544 20.34 17.7259 20.189 18.1084C19.992 18.6154 19.759 18.9762 19.3813 19.3543C19.0032 19.7325 18.6423 19.9689 18.1353 20.1623C17.7528 20.3083 17.1813 20.4888 16.1243 20.5361C14.9813 20.5876 14.6419 20.6005 11.7501 20.6005C8.85827 20.6005 8.51877 20.5876 7.37587 20.5361C6.31877 20.4888 5.74737 20.3125 5.36487 20.1623C4.85787 19.9646 4.49697 19.7325 4.11877 19.3543C3.74067 18.9762 3.50437 18.6154 3.31097 18.1084C3.16487 17.7259 2.98447 17.1544 2.93717 16.0974C2.88557 14.9544 2.87277 14.615 2.87277 11.7232C2.87277 8.83135 2.88557 8.49189 2.93717 7.34893C2.98447 6.29189 3.16057 5.72041 3.31097 5.33799C3.50867 4.83096 3.74067 4.47002 4.11877 4.09189C4.49697 3.71377 4.85787 3.47744 5.36487 3.28408C5.74737 3.13799 6.31877 2.95752 7.37587 2.91025C8.51877 2.85439 8.85827 2.8458 11.7501 2.8458ZM11.7501 0.89502C8.81097 0.89502 8.44147 0.90791 7.28557 0.95947C6.13407 1.01104 5.34777 1.1958 4.66027 1.46221C3.94697 1.73721 3.34537 2.11104 2.74377 2.7126C2.14227 3.31416 1.77277 3.92002 1.49347 4.629C1.22707 5.3165 1.04227 6.10283 0.990669 7.25869C0.939169 8.41025 0.92627 8.77978 0.92627 11.7189C0.92627 14.658 0.939169 15.0274 0.990669 16.1833C1.04227 17.3349 1.22707 18.1212 1.49347 18.813C1.76847 19.5263 2.14227 20.1278 2.74377 20.7293C3.34537 21.3309 3.95127 21.7004 4.66027 21.9797C5.34777 22.2461 6.13407 22.431 7.28987 22.4825C8.44577 22.534 8.81097 22.5469 11.7544 22.5469C14.6978 22.5469 15.063 22.534 16.2188 22.4825C17.3704 22.431 18.1567 22.2461 18.8485 21.9797C19.5618 21.7048 20.163 21.3309 20.765 20.7293C21.367 20.1278 21.736 19.5219 22.015 18.813C22.282 18.1255 22.467 17.3391 22.518 16.1833C22.57 15.0274 22.583 14.6623 22.583 11.7189C22.583 8.77549 22.57 8.41025 22.518 7.25439C22.467 6.10283 22.282 5.3165 22.015 4.62471C21.74 3.91143 21.367 3.30986 20.765 2.7083C20.163 2.10674 19.5575 1.73721 18.8485 1.45791C18.161 1.1915 17.3747 1.00674 16.2188 0.95518C15.0587 0.90791 14.6892 0.89502 11.7501 0.89502ZM11.7501 6.15869C8.68207 6.15869 6.18987 8.64658 6.18987 11.7189C6.18987 14.7912 8.68207 17.2791 11.7501 17.2791C14.8181 17.2791 17.3103 14.7868 17.3103 11.7189C17.3103 8.65088 14.8181 6.15869 11.7501 6.15869ZM11.7501 15.3282C9.75627 15.3282 8.14067 13.7126 8.14067 11.7189C8.14067 9.72505 9.75627 8.10947 11.7501 8.10947C13.7438 8.10947 15.3595 9.72505 15.3595 11.7189C15.3595 13.7126 13.7438 15.3282 11.7501 15.3282ZM18.8268 5.93956C18.8268 6.65624 18.2458 7.23722 17.5291 7.23722C16.8124 7.23722 16.2314 6.65624 16.2314 5.93956C16.2314 5.22289 16.8124 4.64191 17.5291 4.64191C18.2458 4.64191 18.8268 5.22289 18.8268 5.93956Z" fill="white"/>
</g>
<defs>
<clipPath id="clip0_173_47">
<rect width="22" height="22" fill="white" transform="translate(0.75 0.71875)"/>
</clipPath>
</defs>
</svg>
