<svg width="22" height="23" viewBox="0 0 22 23" fill="none" xmlns="http://www.w3.org/2000/svg">
<g clip-path="url(#clip0_173_58)">
<path d="M4.31118 0.71875C1.94037 0.71875 0 2.65907 0 5.02993V18.4083C0 20.7791 1.94032 22.7188 4.31118 22.7188H17.6895C20.0604 22.7188 22 20.7792 22 18.4083V5.02993C22 2.65912 20.0604 0.71875 17.6895 0.71875H4.31118ZM5.3955 4.34919C6.53226 4.34919 7.23245 5.09545 7.25406 6.0764C7.25406 7.03569 6.53221 7.80292 5.37352 7.80292H5.35219C4.23707 7.80292 3.51632 7.03573 3.51632 6.0764C3.51632 5.09547 4.25888 4.34919 5.39548 4.34919H5.3955ZM15.1915 8.93399C17.3777 8.93399 19.0166 10.3629 19.0166 13.4335V19.166H15.6942V13.818C15.6942 12.474 15.2133 11.5571 14.011 11.5571C13.0931 11.5571 12.546 12.1751 12.3058 12.772C12.218 12.9857 12.1964 13.284 12.1964 13.5828V19.166H8.87401C8.87401 19.166 8.91761 10.1065 8.87401 9.16846H12.1971V10.5842C12.6386 9.90301 13.4284 8.93399 15.1915 8.93399ZM3.7123 9.16919H7.03471V19.166H3.7123V9.16919Z" fill="white"/>
</g>
<defs>
<clipPath id="clip0_173_58">
<rect width="22" height="22" fill="white" transform="translate(0 0.71875)"/>
</clipPath>
</defs>
</svg>
