<svg width="10" height="10" viewBox="0 0 10 10" fill="none" xmlns="http://www.w3.org/2000/svg">
<g clip-path="url(#clip0_450_2)">
<path d="M6 1C6 0.447715 5.55228 2.71588e-08 5 0C4.44772 -2.71588e-08 4 0.447715 4 1H6ZM4 9C4 9.55229 4.44771 10 5 10C5.55228 10 6 9.55229 6 9H4ZM4 1V9H6V1H4Z" fill="white"/>
<path d="M1 4C0.447715 4 0 4.44772 0 5C0 5.55228 0.447715 6 1 6V4ZM9 6C9.55229 6 10 5.55228 10 5C10 4.44772 9.55229 4 9 4V6ZM1 6H9V4H1V6Z" fill="white"/>
</g>
<defs>
<clipPath id="clip0_450_2">
<rect width="10" height="10" fill="white"/>
</clipPath>
</defs>
</svg>
