<svg width="118" height="76" viewBox="0 0 118 76" fill="none" xmlns="http://www.w3.org/2000/svg">
<g id="sweet" clip-path="url(#clip0_359_2)">
<g id="Group">
<g id="cover" opacity="0.2">
<g id="Group_2">
<path id="Vector" d="M53.0953 65.8742C62.899 65.3331 73.3058 67.2261 76.3377 70.1026C79.3703 72.9791 73.8807 75.7501 64.077 76.2918C54.2726 76.8328 43.8665 74.9399 40.8345 72.0634C37.8026 69.1868 43.2915 66.4158 53.0953 65.8742Z" fill="#CE3439"/>
</g>
</g>
<g id="cocao-cup">
<g id="tubule">
<g id="Group_3">
<path id="Vector_2" d="M49.7512 16H44.05C43.9598 16 43.8863 16.0729 43.8863 16.1631V17.0469C43.8863 17.1371 43.9598 17.21 44.05 17.21H49.388C49.5888 17.21 49.7512 17.373 49.7512 17.5738V51.8536H51.0936V17.21V16.408C51.0936 16.1829 50.9107 16 50.6856 16H49.7512Z" fill="#CE3439"/>
</g>
</g>
<g id="cup">
<g id="Group_4">
<path id="Vector_3" d="M65.4997 70.475H51.6722C51.6722 67.7916 53.8472 65.616 56.5306 65.616H60.6414C63.3248 65.616 65.4997 67.7916 65.4997 70.475Z" fill="#0A857B"/>
</g>
<g id="Group_5">
<path id="Vector_4" d="M58.6173 66.2235C53.1367 66.2235 48.5923 61.979 48.2195 56.5112L46.583 32.5148H70.8154L69.01 56.5815C68.602 62.0193 64.0704 66.2235 58.6173 66.2235Z" fill="#34A593"/>
</g>
</g>
<g id="cream">
<g id="Group_6">
<path id="Vector_5" d="M68.3668 32.5152H48.8054C48.8054 30.0275 50.8224 28.0105 53.3101 28.0105H63.862C66.3497 28.0105 68.3668 30.0275 68.3668 32.5152Z" fill="#F8D59B"/>
</g>
<g id="Group_7">
<path id="Vector_6" d="M64.1179 28.0106H53.0543C53.0543 25.5229 55.0713 23.5059 57.559 23.5059H59.6131C62.1008 23.5059 64.1179 25.5229 64.1179 28.0106Z" fill="#F8D59B"/>
</g>
<g id="Group_8">
<path id="Vector_7" d="M60.2756 23.6075H56.8965C56.8965 22.7966 57.5532 22.1392 58.3641 22.1392H58.808C59.6189 22.1392 60.2756 22.7966 60.2756 23.6075Z" fill="#F8D59B"/>
</g>
<g id="Group_9">
<path id="Vector_8" d="M64.1178 28.0028C64.1178 28.0028 61.9742 28.6756 60.651 27.3102C59.3279 25.9449 59.6003 25.4863 58.9985 24.7522C58.2343 23.8198 56.8965 23.5429 56.8965 23.5429C56.8965 23.5429 58.3072 23.397 59.6771 23.6074C61.3059 23.8575 61.2637 25.2171 62.4775 26.6566C63.5065 27.8768 64.1178 28.0028 64.1178 28.0028Z" fill="#D8B17D"/>
</g>
<g id="Group_10">
<path id="Vector_9" d="M53.0543 28.0099C53.0543 28.0099 59.2569 29.1578 60.7457 30.1292C62.6662 31.382 62.6278 32.5146 62.6278 32.5146H65.3163C65.3163 32.5146 65.6693 30.4873 62.0132 28.801C59.7091 27.7381 53.0543 28.0099 53.0543 28.0099Z" fill="#D8B17D"/>
</g>
</g>
<g id="cocao">
<g id="Group_11">
<g id="Group_12">
<path id="Vector_10" d="M58.5202 64.3006C54.0961 64.3006 50.4278 60.2992 50.1266 55.1441L48.8054 32.522H68.3668L66.9093 55.2106C66.58 60.3376 62.9226 64.3006 58.5202 64.3006Z" fill="#A56927"/>
</g>
</g>
<g id="Group_13">
<g id="Group_14">
<path id="Vector_11" d="M50.4951 32.515C50.4951 32.515 50.6844 52.0451 51.6724 55.7415C52.2883 58.0469 53.8755 60.0441 54.9832 61.2208C55.1507 61.3986 55.4347 61.1907 55.3157 60.9771C54.4863 59.4896 53.2987 56.9853 53.0544 54.4739C52.2378 46.0784 52.2992 32.515 52.2992 32.515H50.4951Z" fill="#D38D46"/>
</g>
</g>
<g id="Group_15">
<g id="Group_16">
<path id="Vector_12" d="M61.932 55.8397C62.4295 55.9107 62.7761 56.3711 62.7051 56.8686C62.6341 57.3662 62.1737 57.7128 61.6762 57.6418C61.1786 57.5708 60.832 57.1104 60.903 56.6128C60.974 56.1153 61.4344 55.7687 61.932 55.8397Z" fill="#D38D46"/>
</g>
</g>
<g id="Group_17">
<g id="Group_18">
<path id="Vector_13" d="M63.549 57.9926C63.911 58.0437 64.1623 58.3795 64.1112 58.7414C64.06 59.1034 63.7243 59.3547 63.3623 59.3036C63.0003 59.2524 62.749 58.9167 62.8002 58.5547C62.8513 58.1927 63.1871 57.9414 63.549 57.9926Z" fill="#D38D46"/>
</g>
</g>
<g id="Group_19">
<g id="Group_20">
<path id="Vector_14" d="M61.9349 60.0232C62.1325 60.0513 62.27 60.2349 62.2419 60.4325C62.2137 60.6301 62.0302 60.7676 61.8326 60.7394C61.635 60.7113 61.4975 60.5278 61.5256 60.3301C61.5538 60.1325 61.7373 59.995 61.9349 60.0232Z" fill="#D38D46"/>
</g>
</g>
</g>
</g>
</g>
</g>
<defs>
<clipPath id="clip0_359_2">
<rect width="118" height="76" fill="white"/>
</clipPath>
</defs>
</svg>
