<svg width="21" height="19" viewBox="0 0 21 19" fill="none" xmlns="http://www.w3.org/2000/svg">
<g clip-path="url(#clip0_173_52)">
<path d="M20.5 2.84843C19.7639 3.20983 18.9741 3.45493 18.1442 3.56435C18.9915 3.00214 19.6402 2.11039 19.9476 1.05107C19.1527 1.57172 18.2754 1.94977 17.3406 2.15471C16.592 1.26988 15.5271 0.71875 14.3461 0.71875C12.0803 0.71875 10.2431 2.75429 10.2431 5.2634C10.2431 5.61926 10.2794 5.96683 10.3494 6.29919C6.94001 6.10945 3.91684 4.29964 1.89347 1.54956C1.53977 2.21978 1.33856 3.00073 1.33856 3.83436C1.33856 5.41157 2.06343 6.80321 3.16324 7.6174C2.49085 7.59249 1.85847 7.38755 1.30484 7.0469V7.10367C1.30484 9.30537 2.71958 11.1429 4.59546 11.5611C4.25177 11.6636 3.88935 11.7204 3.51442 11.7204C3.24948 11.7204 2.99327 11.6912 2.74206 11.6358C3.26445 13.443 4.77919 14.757 6.57387 14.793C5.17037 16.0117 3.40069 16.7358 1.47856 16.7358C1.14739 16.7358 0.821177 16.7136 0.5 16.6735C2.31592 17.9655 4.47177 18.7188 6.78883 18.7188C14.3362 18.7188 18.4617 11.7923 18.4617 5.78546L18.4479 5.19696C19.254 4.55994 19.9513 3.75959 20.5 2.84843Z" fill="white"/>
</g>
<defs>
<clipPath id="clip0_173_52">
<rect width="20" height="18" fill="white" transform="translate(0.5 0.71875)"/>
</clipPath>
</defs>
</svg>
