<svg width="23" height="16" viewBox="0 0 23 16" fill="none" xmlns="http://www.w3.org/2000/svg">
<g clip-path="url(#clip0_173_55)">
<path d="M21.7893 2.57225C21.6648 2.11806 21.4222 1.70686 21.0873 1.38236C20.7429 1.04789 20.3208 0.808629 19.8609 0.687171C18.1397 0.223396 11.2436 0.223396 11.2436 0.223396C8.36869 0.18996 5.4945 0.337021 2.63724 0.663748C2.17731 0.794179 1.75605 1.03878 1.41091 1.37581C1.07179 1.70935 0.826155 2.12066 0.697839 2.57131C0.389599 4.26877 0.239835 5.99233 0.250566 7.71874C0.239567 9.44361 0.388964 11.1666 0.697839 12.8661C0.823405 13.3149 1.06812 13.7243 1.40816 14.0552C1.7482 14.3858 2.17164 14.6248 2.63724 14.7513C4.38143 15.2141 11.2436 15.2141 11.2436 15.2141C14.1221 15.2476 17 15.1006 19.8609 14.7738C20.3208 14.6523 20.7429 14.4131 21.0873 14.0786C21.4264 13.7479 21.6674 13.3365 21.7884 12.8886C22.1047 11.1918 22.2585 9.46759 22.2476 7.74029C22.2714 6.00569 22.1178 4.27329 21.7893 2.57131V2.57225ZM9.05121 10.9268V4.51167L14.7888 7.71968L9.05121 10.9268Z" fill="white"/>
</g>
<defs>
<clipPath id="clip0_173_55">
<rect width="22" height="15" fill="white" transform="translate(0.25 0.21875)"/>
</clipPath>
</defs>
</svg>
