<?xml version="1.0" standalone="no"?>
<!DOCTYPE svg PUBLIC "-//W3C//DTD SVG 20010904//EN"
 "http://www.w3.org/TR/2001/REC-SVG-20010904/DTD/svg10.dtd">
<svg version="1.0" xmlns="http://www.w3.org/2000/svg"
 width="700.000000pt" height="700.000000pt" viewBox="0 0 700.000000 700.000000"
 preserveAspectRatio="xMidYMid meet">
<metadata>
Created by potrace 1.14, written by Peter Selinger 2001-2017
</metadata>
<g transform="translate(0.000000,700.000000) scale(0.100000,-0.100000)"
fill="#000000" stroke="none">
<path d="M0 3500 l0 -3500 3500 0 3500 0 0 3500 0 3500 -3500 0 -3500 0 0
-3500z m3885 2470 c448 -52 786 -228 1008 -525 63 -85 141 -238 176 -345 95
-297 85 -678 -24 -917 -69 -151 -187 -290 -323 -382 -81 -55 -246 -134 -328
-158 -58 -16 -64 -20 -64 -44 0 -25 3 -27 64 -33 192 -20 424 -144 590 -316
246 -255 358 -571 343 -965 -9 -229 -50 -393 -143 -575 -194 -380 -571 -604
-1149 -681 -63 -8 -401 -13 -1127 -16 l-1038 -4 0 2485 0 2486 963 0 c593 0
997 -4 1052 -10z"/>
<path d="M2480 4624 l0 -825 653 3 652 4 97 26 c357 97 599 337 663 657 24
115 16 307 -15 406 -83 264 -272 441 -544 510 -159 40 -253 45 -896 45 l-610
0 0 -826z"/>
<path d="M2480 2410 l0 -860 689 0 c749 0 829 4 1007 55 183 53 307 129 408
251 198 240 229 566 82 869 -139 284 -400 472 -740 530 -73 12 -205 15 -767
15 l-679 0 0 -860z"/>
</g>
</svg>
